<svg width="764" height="190" viewBox="0 0 764 190" fill="none" xmlns="http://www.w3.org/2000/svg">
<rect width="764" height="190" rx="8" fill="#211E2B"/>
<path d="M26.4258 25.7471C26.1159 25.8656 25.7969 25.9521 25.4688 26.0068C25.1452 26.0661 24.8102 26.0957 24.4639 26.0957C23.3792 26.0957 22.543 25.8018 21.9551 25.2139C21.3717 24.626 21.0801 23.7669 21.0801 22.6367C21.0801 22.0944 21.1644 21.6022 21.333 21.1602C21.5016 20.7181 21.7386 20.3398 22.0439 20.0254C22.3493 19.7109 22.7139 19.4694 23.1377 19.3008C23.5615 19.1276 24.0286 19.041 24.5391 19.041C24.8945 19.041 25.2272 19.0661 25.5371 19.1162C25.847 19.1663 26.1432 19.2484 26.4258 19.3623V20.4971C26.1296 20.3421 25.8265 20.2305 25.5166 20.1621C25.2113 20.0892 24.8945 20.0527 24.5664 20.0527C24.2611 20.0527 23.9717 20.112 23.6982 20.2305C23.4294 20.3444 23.1924 20.5107 22.9873 20.7295C22.7822 20.9482 22.6204 21.2148 22.502 21.5293C22.3835 21.8438 22.3242 22.1992 22.3242 22.5957C22.3242 23.4251 22.5247 24.0472 22.9258 24.4619C23.3314 24.8721 23.8919 25.0771 24.6074 25.0771C24.931 25.0771 25.2432 25.0407 25.5439 24.9678C25.8493 24.8949 26.1432 24.7855 26.4258 24.6396V25.7471ZM31.1289 17.3184H29.0986V16.3408H32.332V25.0088H34.376V26H28.873V25.0088H31.1289V17.3184ZM40.8975 26L40.8701 25.0771C40.4964 25.4463 40.1159 25.7129 39.7285 25.877C39.3457 26.041 38.9424 26.123 38.5186 26.123C38.1266 26.123 37.7917 26.0729 37.5137 25.9727C37.2357 25.8724 37.0055 25.7357 36.8232 25.5625C36.6455 25.3848 36.5133 25.1774 36.4268 24.9404C36.3447 24.7035 36.3037 24.446 36.3037 24.168C36.3037 23.4798 36.5589 22.9421 37.0693 22.5547C37.5843 22.1628 38.3431 21.9668 39.3457 21.9668H40.7676V21.3652C40.7676 20.9596 40.6377 20.6361 40.3779 20.3945C40.1182 20.1484 39.7217 20.0254 39.1885 20.0254C38.8011 20.0254 38.4183 20.0687 38.04 20.1553C37.6663 20.2419 37.279 20.3649 36.8779 20.5244V19.4512C37.0283 19.3965 37.1947 19.3441 37.377 19.2939C37.5638 19.2393 37.7598 19.1914 37.9648 19.1504C38.1699 19.1094 38.3841 19.0775 38.6074 19.0547C38.8307 19.0273 39.0563 19.0137 39.2842 19.0137C39.6989 19.0137 40.0726 19.0592 40.4053 19.1504C40.738 19.2415 41.0182 19.3805 41.2461 19.5674C41.4785 19.7542 41.6562 19.9889 41.7793 20.2715C41.9023 20.554 41.9639 20.8867 41.9639 21.2695V26H40.8975ZM40.7676 22.876H39.2568C38.9606 22.876 38.7054 22.9056 38.4912 22.9648C38.277 23.0241 38.1016 23.1084 37.9648 23.2178C37.8281 23.3271 37.7256 23.4593 37.6572 23.6143C37.5934 23.7646 37.5615 23.9355 37.5615 24.127C37.5615 24.2591 37.582 24.3867 37.623 24.5098C37.6641 24.6283 37.7301 24.7354 37.8213 24.8311C37.9124 24.9222 38.0309 24.9951 38.1768 25.0498C38.3226 25.1045 38.5003 25.1318 38.71 25.1318C38.9834 25.1318 39.2956 25.0498 39.6465 24.8857C40.002 24.7171 40.3757 24.4528 40.7676 24.0928V22.876ZM49.6201 24.127C49.6201 24.3685 49.5791 24.585 49.4971 24.7764C49.415 24.9678 49.3034 25.1387 49.1621 25.2891C49.0208 25.4349 48.8568 25.5602 48.6699 25.665C48.4831 25.7699 48.2826 25.8564 48.0684 25.9248C47.8587 25.9932 47.6423 26.0433 47.4189 26.0752C47.1956 26.1071 46.9769 26.123 46.7627 26.123C46.2979 26.123 45.8695 26.1025 45.4775 26.0615C45.0902 26.0205 44.7096 25.9544 44.3359 25.8633V24.7695C44.737 24.8835 45.1357 24.9701 45.5322 25.0293C45.9287 25.0885 46.3229 25.1182 46.7148 25.1182C47.2845 25.1182 47.7061 25.0407 47.9795 24.8857C48.2529 24.7308 48.3896 24.5098 48.3896 24.2227C48.3896 24.0996 48.3669 23.9902 48.3213 23.8945C48.2803 23.7943 48.2028 23.7008 48.0889 23.6143C47.9749 23.5231 47.7972 23.4297 47.5557 23.334C47.3187 23.2383 46.9928 23.1289 46.5781 23.0059C46.2682 22.9147 45.9811 22.8122 45.7168 22.6982C45.457 22.5798 45.2314 22.4408 45.04 22.2812C44.8486 22.1217 44.6982 21.9349 44.5889 21.7207C44.4795 21.5065 44.4248 21.2536 44.4248 20.9619C44.4248 20.7705 44.4681 20.5609 44.5547 20.333C44.6458 20.1051 44.7985 19.8932 45.0127 19.6973C45.2269 19.5013 45.5163 19.3395 45.8809 19.2119C46.2454 19.0798 46.7012 19.0137 47.248 19.0137C47.5169 19.0137 47.8154 19.0296 48.1436 19.0615C48.4717 19.0889 48.8135 19.139 49.1689 19.2119V20.2715C48.7952 20.1803 48.4398 20.1143 48.1025 20.0732C47.7699 20.0277 47.4805 20.0049 47.2344 20.0049C46.9382 20.0049 46.6875 20.0277 46.4824 20.0732C46.2819 20.1188 46.1178 20.1826 45.9902 20.2646C45.8672 20.3421 45.7783 20.4355 45.7236 20.5449C45.6689 20.6497 45.6416 20.7637 45.6416 20.8867C45.6416 21.0098 45.6644 21.1214 45.71 21.2217C45.7601 21.3219 45.849 21.4199 45.9766 21.5156C46.1087 21.6068 46.291 21.7002 46.5234 21.7959C46.7559 21.887 47.0589 21.9873 47.4326 22.0967C47.8382 22.2152 48.18 22.3405 48.458 22.4727C48.736 22.6003 48.9616 22.7438 49.1348 22.9033C49.3079 23.0628 49.431 23.2428 49.5039 23.4434C49.5814 23.6439 49.6201 23.8717 49.6201 24.127ZM57.3174 24.127C57.3174 24.3685 57.2764 24.585 57.1943 24.7764C57.1123 24.9678 57.0007 25.1387 56.8594 25.2891C56.7181 25.4349 56.554 25.5602 56.3672 25.665C56.1803 25.7699 55.9798 25.8564 55.7656 25.9248C55.556 25.9932 55.3395 26.0433 55.1162 26.0752C54.8929 26.1071 54.6742 26.123 54.46 26.123C53.9951 26.123 53.5667 26.1025 53.1748 26.0615C52.7874 26.0205 52.4069 25.9544 52.0332 25.8633V24.7695C52.4342 24.8835 52.833 24.9701 53.2295 25.0293C53.626 25.0885 54.0202 25.1182 54.4121 25.1182C54.9818 25.1182 55.4033 25.0407 55.6768 24.8857C55.9502 24.7308 56.0869 24.5098 56.0869 24.2227C56.0869 24.0996 56.0641 23.9902 56.0186 23.8945C55.9775 23.7943 55.9001 23.7008 55.7861 23.6143C55.6722 23.5231 55.4945 23.4297 55.2529 23.334C55.016 23.2383 54.6901 23.1289 54.2754 23.0059C53.9655 22.9147 53.6784 22.8122 53.4141 22.6982C53.1543 22.5798 52.9287 22.4408 52.7373 22.2812C52.5459 22.1217 52.3955 21.9349 52.2861 21.7207C52.1768 21.5065 52.1221 21.2536 52.1221 20.9619C52.1221 20.7705 52.1654 20.5609 52.252 20.333C52.3431 20.1051 52.4958 19.8932 52.71 19.6973C52.9242 19.5013 53.2135 19.3395 53.5781 19.2119C53.9427 19.0798 54.3984 19.0137 54.9453 19.0137C55.2142 19.0137 55.5127 19.0296 55.8408 19.0615C56.1689 19.0889 56.5107 19.139 56.8662 19.2119V20.2715C56.4925 20.1803 56.137 20.1143 55.7998 20.0732C55.4671 20.0277 55.1777 20.0049 54.9316 20.0049C54.6354 20.0049 54.3848 20.0277 54.1797 20.0732C53.9792 20.1188 53.8151 20.1826 53.6875 20.2646C53.5645 20.3421 53.4756 20.4355 53.4209 20.5449C53.3662 20.6497 53.3389 20.7637 53.3389 20.8867C53.3389 21.0098 53.3617 21.1214 53.4072 21.2217C53.4574 21.3219 53.5462 21.4199 53.6738 21.5156C53.806 21.6068 53.9883 21.7002 54.2207 21.7959C54.4531 21.887 54.7562 21.9873 55.1299 22.0967C55.5355 22.2152 55.8773 22.3405 56.1553 22.4727C56.4333 22.6003 56.6589 22.7438 56.832 22.9033C57.0052 23.0628 57.1283 23.2428 57.2012 23.4434C57.2786 23.6439 57.3174 23.8717 57.3174 24.127ZM72.9854 25.665C72.2699 25.9613 71.5202 26.1094 70.7363 26.1094C69.474 26.1094 68.5033 25.7334 67.8242 24.9814C67.1497 24.2249 66.8125 23.1084 66.8125 21.6318C66.8125 20.9163 66.9059 20.2692 67.0928 19.6904C67.2796 19.1117 67.5462 18.6217 67.8926 18.2207C68.2389 17.8151 68.6582 17.5029 69.1504 17.2842C69.6426 17.0654 70.194 16.9561 70.8047 16.9561C71.2194 16.9561 71.6045 16.9925 71.96 17.0654C72.3154 17.1338 72.6572 17.2409 72.9854 17.3867V18.583C72.6618 18.4053 72.3268 18.2708 71.9805 18.1797C71.6341 18.084 71.2559 18.0361 70.8457 18.0361C70.4264 18.0361 70.0459 18.1159 69.7041 18.2754C69.3669 18.4303 69.0798 18.6582 68.8428 18.959C68.6058 19.2552 68.4235 19.6198 68.2959 20.0527C68.1683 20.4811 68.1045 20.971 68.1045 21.5225C68.1045 22.68 68.3392 23.5527 68.8086 24.1406C69.278 24.7285 69.9661 25.0225 70.873 25.0225C71.2559 25.0225 71.6227 24.9792 71.9736 24.8926C72.3245 24.8014 72.6618 24.6761 72.9854 24.5166V25.665ZM79.3838 26L79.3564 25.0771C78.9827 25.4463 78.6022 25.7129 78.2148 25.877C77.832 26.041 77.4287 26.123 77.0049 26.123C76.613 26.123 76.278 26.0729 76 25.9727C75.722 25.8724 75.4919 25.7357 75.3096 25.5625C75.1318 25.3848 74.9997 25.1774 74.9131 24.9404C74.8311 24.7035 74.79 24.446 74.79 24.168C74.79 23.4798 75.0452 22.9421 75.5557 22.5547C76.0706 22.1628 76.8294 21.9668 77.832 21.9668H79.2539V21.3652C79.2539 20.9596 79.124 20.6361 78.8643 20.3945C78.6045 20.1484 78.208 20.0254 77.6748 20.0254C77.2874 20.0254 76.9046 20.0687 76.5264 20.1553C76.1527 20.2419 75.7653 20.3649 75.3643 20.5244V19.4512C75.5146 19.3965 75.681 19.3441 75.8633 19.2939C76.0501 19.2393 76.2461 19.1914 76.4512 19.1504C76.6562 19.1094 76.8704 19.0775 77.0938 19.0547C77.3171 19.0273 77.5426 19.0137 77.7705 19.0137C78.1852 19.0137 78.5589 19.0592 78.8916 19.1504C79.2243 19.2415 79.5046 19.3805 79.7324 19.5674C79.9648 19.7542 80.1426 19.9889 80.2656 20.2715C80.3887 20.554 80.4502 20.8867 80.4502 21.2695V26H79.3838ZM79.2539 22.876H77.7432C77.4469 22.876 77.1917 22.9056 76.9775 22.9648C76.7633 23.0241 76.5879 23.1084 76.4512 23.2178C76.3145 23.3271 76.2119 23.4593 76.1436 23.6143C76.0798 23.7646 76.0479 23.9355 76.0479 24.127C76.0479 24.2591 76.0684 24.3867 76.1094 24.5098C76.1504 24.6283 76.2165 24.7354 76.3076 24.8311C76.3988 24.9222 76.5173 24.9951 76.6631 25.0498C76.8089 25.1045 76.9867 25.1318 77.1963 25.1318C77.4697 25.1318 77.7819 25.0498 78.1328 24.8857C78.4883 24.7171 78.862 24.4528 79.2539 24.0928V22.876ZM82.9521 19.1367H84.0391L84.0732 20.4014C84.4788 19.9137 84.8776 19.5605 85.2695 19.3418C85.666 19.123 86.0648 19.0137 86.4658 19.0137C87.1768 19.0137 87.7145 19.2438 88.0791 19.7041C88.4482 20.1644 88.6191 20.848 88.5918 21.7549H87.3887C87.4023 21.1533 87.3135 20.7181 87.1221 20.4492C86.9352 20.1758 86.6595 20.0391 86.2949 20.0391C86.1354 20.0391 85.9736 20.0687 85.8096 20.1279C85.6501 20.1826 85.4837 20.2738 85.3105 20.4014C85.1419 20.5244 84.9619 20.6839 84.7705 20.8799C84.5791 21.0758 84.374 21.3128 84.1553 21.5908V26H82.9521V19.1367ZM103.104 28.8027H102.599C101.719 28.8027 101.065 28.5954 100.637 28.1807C100.208 27.7705 99.9941 27.1462 99.9941 26.3076V23.9561C99.9941 23.7327 99.9691 23.5345 99.9189 23.3613C99.8688 23.1836 99.7799 23.0355 99.6523 22.917C99.5293 22.7939 99.363 22.7005 99.1533 22.6367C98.9482 22.5729 98.6885 22.541 98.374 22.541H98.0801V21.5908H98.374C98.7067 21.5908 98.9779 21.5635 99.1875 21.5088C99.3971 21.4541 99.5612 21.3721 99.6797 21.2627C99.7982 21.1488 99.8802 21.0052 99.9258 20.832C99.9714 20.6589 99.9941 20.4538 99.9941 20.2168V18.5967C99.9941 18.2139 100.04 17.8698 100.131 17.5645C100.222 17.2546 100.37 16.9925 100.575 16.7783C100.785 16.5596 101.054 16.3932 101.382 16.2793C101.715 16.1608 102.12 16.1016 102.599 16.1016H103.104V17.0586H102.701C101.644 17.0586 101.115 17.5713 101.115 18.5967V20.1895C101.115 21.3014 100.634 21.9281 99.6729 22.0693C100.644 22.165 101.129 22.7894 101.129 23.9424V26.2803C101.129 27.3239 101.653 27.8457 102.701 27.8457H103.104V28.8027ZM41.8203 41.7471C41.5104 41.8656 41.1914 41.9521 40.8633 42.0068C40.5397 42.0661 40.2048 42.0957 39.8584 42.0957C38.7738 42.0957 37.9375 41.8018 37.3496 41.2139C36.7663 40.626 36.4746 39.7669 36.4746 38.6367C36.4746 38.0944 36.5589 37.6022 36.7275 37.1602C36.8962 36.7181 37.1331 36.3398 37.4385 36.0254C37.7438 35.7109 38.1084 35.4694 38.5322 35.3008C38.9561 35.1276 39.4232 35.041 39.9336 35.041C40.2891 35.041 40.6217 35.0661 40.9316 35.1162C41.2415 35.1663 41.5378 35.2484 41.8203 35.3623V36.4971C41.5241 36.3421 41.221 36.2305 40.9111 36.1621C40.6058 36.0892 40.2891 36.0527 39.9609 36.0527C39.6556 36.0527 39.3662 36.112 39.0928 36.2305C38.8239 36.3444 38.5869 36.5107 38.3818 36.7295C38.1768 36.9482 38.015 37.2148 37.8965 37.5293C37.778 37.8438 37.7188 38.1992 37.7188 38.5957C37.7188 39.4251 37.9193 40.0472 38.3203 40.4619C38.7259 40.8721 39.2865 41.0771 40.002 41.0771C40.3255 41.0771 40.6377 41.0407 40.9385 40.9678C41.2438 40.8949 41.5378 40.7855 41.8203 40.6396V41.7471ZM50.1602 38.5137C50.1602 39.0469 50.085 39.5368 49.9346 39.9834C49.7842 40.4255 49.5677 40.806 49.2852 41.125C49.0026 41.4395 48.6585 41.6855 48.2529 41.8633C47.8473 42.0365 47.387 42.123 46.8721 42.123C46.3799 42.123 45.9378 42.0479 45.5459 41.8975C45.1585 41.7425 44.8281 41.5169 44.5547 41.2207C44.2858 40.9245 44.0785 40.5576 43.9326 40.1201C43.7913 39.6826 43.7207 39.179 43.7207 38.6094C43.7207 38.0762 43.7959 37.5908 43.9463 37.1533C44.0967 36.7113 44.3132 36.333 44.5957 36.0186C44.8783 35.6995 45.2223 35.4535 45.6279 35.2803C46.0335 35.1025 46.4938 35.0137 47.0088 35.0137C47.501 35.0137 47.9408 35.0911 48.3281 35.2461C48.7201 35.3965 49.0505 35.6198 49.3193 35.916C49.5928 36.2077 49.8001 36.5723 49.9414 37.0098C50.0872 37.4473 50.1602 37.9486 50.1602 38.5137ZM48.9434 38.5684C48.9434 38.1445 48.8955 37.7754 48.7998 37.4609C48.7087 37.1419 48.5765 36.8776 48.4033 36.668C48.2301 36.4538 48.0182 36.2943 47.7676 36.1895C47.5215 36.0801 47.2458 36.0254 46.9404 36.0254C46.585 36.0254 46.2796 36.096 46.0244 36.2373C45.7738 36.374 45.5664 36.5586 45.4023 36.791C45.2428 37.0234 45.1243 37.2946 45.0469 37.6045C44.974 37.9098 44.9375 38.2311 44.9375 38.5684C44.9375 38.9922 44.9831 39.3636 45.0742 39.6826C45.1699 40.0016 45.3044 40.2682 45.4775 40.4824C45.6507 40.6921 45.8604 40.8516 46.1064 40.9609C46.3525 41.0658 46.6305 41.1182 46.9404 41.1182C47.2959 41.1182 47.599 41.0498 47.8496 40.9131C48.1048 40.7718 48.3122 40.585 48.4717 40.3525C48.6357 40.1201 48.7542 39.8512 48.8271 39.5459C48.9046 39.236 48.9434 38.9102 48.9434 38.5684ZM51.8828 35.1367H52.9424L52.9902 36.2441C53.1908 36.0072 53.3844 35.8112 53.5713 35.6562C53.7581 35.4967 53.9404 35.3691 54.1182 35.2734C54.3005 35.1777 54.485 35.1117 54.6719 35.0752C54.8587 35.0342 55.0524 35.0137 55.2529 35.0137C55.9593 35.0137 56.4925 35.2233 56.8525 35.6426C57.2171 36.0573 57.3994 36.6839 57.3994 37.5225V42H56.21V37.6182C56.21 37.0804 56.1097 36.6839 55.9092 36.4287C55.7087 36.1689 55.4102 36.0391 55.0137 36.0391C54.8678 36.0391 54.7243 36.0618 54.583 36.1074C54.4463 36.1484 54.3027 36.2236 54.1523 36.333C54.002 36.4378 53.8379 36.5814 53.6602 36.7637C53.487 36.946 53.291 37.1738 53.0723 37.4473V42H51.8828V35.1367ZM65.0146 40.127C65.0146 40.3685 64.9736 40.585 64.8916 40.7764C64.8096 40.9678 64.6979 41.1387 64.5566 41.2891C64.4154 41.4349 64.2513 41.5602 64.0645 41.665C63.8776 41.7699 63.6771 41.8564 63.4629 41.9248C63.2533 41.9932 63.0368 42.0433 62.8135 42.0752C62.5902 42.1071 62.3714 42.123 62.1572 42.123C61.6924 42.123 61.264 42.1025 60.8721 42.0615C60.4847 42.0205 60.1042 41.9544 59.7305 41.8633V40.7695C60.1315 40.8835 60.5303 40.9701 60.9268 41.0293C61.3232 41.0885 61.7174 41.1182 62.1094 41.1182C62.679 41.1182 63.1006 41.0407 63.374 40.8857C63.6475 40.7308 63.7842 40.5098 63.7842 40.2227C63.7842 40.0996 63.7614 39.9902 63.7158 39.8945C63.6748 39.7943 63.5973 39.7008 63.4834 39.6143C63.3695 39.5231 63.1917 39.4297 62.9502 39.334C62.7132 39.2383 62.3874 39.1289 61.9727 39.0059C61.6628 38.9147 61.3757 38.8122 61.1113 38.6982C60.8516 38.5798 60.626 38.4408 60.4346 38.2812C60.2432 38.1217 60.0928 37.9349 59.9834 37.7207C59.874 37.5065 59.8193 37.2536 59.8193 36.9619C59.8193 36.7705 59.8626 36.5609 59.9492 36.333C60.0404 36.1051 60.193 35.8932 60.4072 35.6973C60.6214 35.5013 60.9108 35.3395 61.2754 35.2119C61.64 35.0798 62.0957 35.0137 62.6426 35.0137C62.9115 35.0137 63.21 35.0296 63.5381 35.0615C63.8662 35.0889 64.208 35.139 64.5635 35.2119V36.2715C64.1898 36.1803 63.8343 36.1143 63.4971 36.0732C63.1644 36.0277 62.875 36.0049 62.6289 36.0049C62.3327 36.0049 62.082 36.0277 61.877 36.0732C61.6764 36.1188 61.5124 36.1826 61.3848 36.2646C61.2617 36.3421 61.1729 36.4355 61.1182 36.5449C61.0635 36.6497 61.0361 36.7637 61.0361 36.8867C61.0361 37.0098 61.0589 37.1214 61.1045 37.2217C61.1546 37.3219 61.2435 37.4199 61.3711 37.5156C61.5033 37.6068 61.6855 37.7002 61.918 37.7959C62.1504 37.887 62.4535 37.9873 62.8271 38.0967C63.2327 38.2152 63.5745 38.3405 63.8525 38.4727C64.1305 38.6003 64.3561 38.7438 64.5293 38.9033C64.7025 39.0628 64.8255 39.2428 64.8984 39.4434C64.9759 39.6439 65.0146 39.8717 65.0146 40.127ZM72.8076 41.9043C72.5387 41.9727 72.2607 42.0205 71.9736 42.0479C71.6865 42.0798 71.3949 42.0957 71.0986 42.0957C70.2373 42.0957 69.5947 41.902 69.1709 41.5146C68.7471 41.1227 68.5352 40.5234 68.5352 39.7168V36.1348H66.6143V35.1367H68.5352V33.25L69.7246 32.9424V35.1367H72.8076V36.1348H69.7246V39.6211C69.7246 40.1133 69.8545 40.4824 70.1143 40.7285C70.3786 40.9701 70.766 41.0908 71.2764 41.0908C71.4951 41.0908 71.7344 41.0749 71.9941 41.043C72.2539 41.0065 72.5251 40.9518 72.8076 40.8789V41.9043ZM75.2549 35.1367H76.3418L76.376 36.4014C76.7816 35.9137 77.1803 35.5605 77.5723 35.3418C77.9688 35.123 78.3675 35.0137 78.7686 35.0137C79.4795 35.0137 80.0173 35.2438 80.3818 35.7041C80.751 36.1644 80.9219 36.848 80.8945 37.7549H79.6914C79.7051 37.1533 79.6162 36.7181 79.4248 36.4492C79.238 36.1758 78.9622 36.0391 78.5977 36.0391C78.4382 36.0391 78.2764 36.0687 78.1123 36.1279C77.9528 36.1826 77.7865 36.2738 77.6133 36.4014C77.4447 36.5244 77.2646 36.6839 77.0732 36.8799C76.8818 37.0758 76.6768 37.3128 76.458 37.5908V42H75.2549V35.1367ZM88.1885 42H87.1221L87.0811 40.8926C86.876 41.1296 86.68 41.3278 86.4932 41.4873C86.3109 41.6423 86.1286 41.7676 85.9463 41.8633C85.764 41.959 85.5794 42.0251 85.3926 42.0615C85.2103 42.1025 85.0166 42.123 84.8115 42.123C84.1051 42.123 83.5719 41.9157 83.2119 41.501C82.8519 41.0863 82.6719 40.4596 82.6719 39.6211V35.1367H83.8613V39.5254C83.8613 40.5781 84.2578 41.1045 85.0508 41.1045C85.1966 41.1045 85.3379 41.084 85.4746 41.043C85.6159 40.9974 85.7617 40.9222 85.9121 40.8174C86.0671 40.708 86.2311 40.5622 86.4043 40.3799C86.582 40.1976 86.7803 39.9674 86.999 39.6895V35.1367H88.1885V42ZM95.7012 41.7471C95.3913 41.8656 95.0723 41.9521 94.7441 42.0068C94.4206 42.0661 94.0856 42.0957 93.7393 42.0957C92.6546 42.0957 91.8184 41.8018 91.2305 41.2139C90.6471 40.626 90.3555 39.7669 90.3555 38.6367C90.3555 38.0944 90.4398 37.6022 90.6084 37.1602C90.777 36.7181 91.014 36.3398 91.3193 36.0254C91.6247 35.7109 91.9893 35.4694 92.4131 35.3008C92.8369 35.1276 93.304 35.041 93.8145 35.041C94.1699 35.041 94.5026 35.0661 94.8125 35.1162C95.1224 35.1663 95.4186 35.2484 95.7012 35.3623V36.4971C95.4049 36.3421 95.1019 36.2305 94.792 36.1621C94.4867 36.0892 94.1699 36.0527 93.8418 36.0527C93.5365 36.0527 93.2471 36.112 92.9736 36.2305C92.7048 36.3444 92.4678 36.5107 92.2627 36.7295C92.0576 36.9482 91.8958 37.2148 91.7773 37.5293C91.6589 37.8438 91.5996 38.1992 91.5996 38.5957C91.5996 39.4251 91.8001 40.0472 92.2012 40.4619C92.6068 40.8721 93.1673 41.0771 93.8828 41.0771C94.2064 41.0771 94.5186 41.0407 94.8193 40.9678C95.1247 40.8949 95.4186 40.7855 95.7012 40.6396V41.7471ZM103.597 41.9043C103.328 41.9727 103.05 42.0205 102.763 42.0479C102.476 42.0798 102.184 42.0957 101.888 42.0957C101.026 42.0957 100.384 41.902 99.96 41.5146C99.5361 41.1227 99.3242 40.5234 99.3242 39.7168V36.1348H97.4033V35.1367H99.3242V33.25L100.514 32.9424V35.1367H103.597V36.1348H100.514V39.6211C100.514 40.1133 100.644 40.4824 100.903 40.7285C101.168 40.9701 101.555 41.0908 102.065 41.0908C102.284 41.0908 102.523 41.0749 102.783 41.043C103.043 41.0065 103.314 40.9518 103.597 40.8789V41.9043ZM111.738 38.5137C111.738 39.0469 111.663 39.5368 111.513 39.9834C111.362 40.4255 111.146 40.806 110.863 41.125C110.581 41.4395 110.237 41.6855 109.831 41.8633C109.425 42.0365 108.965 42.123 108.45 42.123C107.958 42.123 107.516 42.0479 107.124 41.8975C106.737 41.7425 106.406 41.5169 106.133 41.2207C105.864 40.9245 105.657 40.5576 105.511 40.1201C105.369 39.6826 105.299 39.179 105.299 38.6094C105.299 38.0762 105.374 37.5908 105.524 37.1533C105.675 36.7113 105.891 36.333 106.174 36.0186C106.456 35.6995 106.8 35.4535 107.206 35.2803C107.612 35.1025 108.072 35.0137 108.587 35.0137C109.079 35.0137 109.519 35.0911 109.906 35.2461C110.298 35.3965 110.629 35.6198 110.897 35.916C111.171 36.2077 111.378 36.5723 111.52 37.0098C111.665 37.4473 111.738 37.9486 111.738 38.5137ZM110.521 38.5684C110.521 38.1445 110.474 37.7754 110.378 37.4609C110.287 37.1419 110.155 36.8776 109.981 36.668C109.808 36.4538 109.596 36.2943 109.346 36.1895C109.1 36.0801 108.824 36.0254 108.519 36.0254C108.163 36.0254 107.858 36.096 107.603 36.2373C107.352 36.374 107.145 36.5586 106.98 36.791C106.821 37.0234 106.702 37.2946 106.625 37.6045C106.552 37.9098 106.516 38.2311 106.516 38.5684C106.516 38.9922 106.561 39.3636 106.652 39.6826C106.748 40.0016 106.882 40.2682 107.056 40.4824C107.229 40.6921 107.438 40.8516 107.685 40.9609C107.931 41.0658 108.209 41.1182 108.519 41.1182C108.874 41.1182 109.177 41.0498 109.428 40.9131C109.683 40.7718 109.89 40.585 110.05 40.3525C110.214 40.1201 110.332 39.8512 110.405 39.5459C110.483 39.236 110.521 38.9102 110.521 38.5684ZM113.741 35.1367H114.828L114.862 36.4014C115.268 35.9137 115.667 35.5605 116.059 35.3418C116.455 35.123 116.854 35.0137 117.255 35.0137C117.966 35.0137 118.504 35.2438 118.868 35.7041C119.237 36.1644 119.408 36.848 119.381 37.7549H118.178C118.191 37.1533 118.103 36.7181 117.911 36.4492C117.724 36.1758 117.449 36.0391 117.084 36.0391C116.924 36.0391 116.763 36.0687 116.599 36.1279C116.439 36.1826 116.273 36.2738 116.1 36.4014C115.931 36.5244 115.751 36.6839 115.56 36.8799C115.368 37.0758 115.163 37.3128 114.944 37.5908V42H113.741V35.1367ZM125.267 44.8711C123.166 42.9251 122.115 40.7741 122.115 38.418C122.115 37.8665 122.17 37.3174 122.279 36.7705C122.393 36.2191 122.573 35.6676 122.819 35.1162C123.07 34.5648 123.398 34.0133 123.804 33.4619C124.214 32.9105 124.711 32.3636 125.294 31.8213L125.984 32.5254C124.216 34.2708 123.332 36.2054 123.332 38.3291C123.332 39.3864 123.555 40.4027 124.002 41.3779C124.449 42.3532 125.109 43.2738 125.984 44.1396L125.267 44.8711ZM128.855 35.1367H129.915L129.963 36.2441C130.163 36.0072 130.357 35.8112 130.544 35.6562C130.731 35.4967 130.913 35.3691 131.091 35.2734C131.273 35.1777 131.458 35.1117 131.645 35.0752C131.831 35.0342 132.025 35.0137 132.226 35.0137C132.932 35.0137 133.465 35.2233 133.825 35.6426C134.19 36.0573 134.372 36.6839 134.372 37.5225V42H133.183V37.6182C133.183 37.0804 133.082 36.6839 132.882 36.4287C132.681 36.1689 132.383 36.0391 131.986 36.0391C131.84 36.0391 131.697 36.0618 131.556 36.1074C131.419 36.1484 131.275 36.2236 131.125 36.333C130.975 36.4378 130.811 36.5814 130.633 36.7637C130.46 36.946 130.264 37.1738 130.045 37.4473V42H128.855V35.1367ZM140.962 42L140.935 41.0771C140.561 41.4463 140.18 41.7129 139.793 41.877C139.41 42.041 139.007 42.123 138.583 42.123C138.191 42.123 137.856 42.0729 137.578 41.9727C137.3 41.8724 137.07 41.7357 136.888 41.5625C136.71 41.3848 136.578 41.1774 136.491 40.9404C136.409 40.7035 136.368 40.446 136.368 40.168C136.368 39.4798 136.623 38.9421 137.134 38.5547C137.649 38.1628 138.408 37.9668 139.41 37.9668H140.832V37.3652C140.832 36.9596 140.702 36.6361 140.442 36.3945C140.183 36.1484 139.786 36.0254 139.253 36.0254C138.866 36.0254 138.483 36.0687 138.104 36.1553C137.731 36.2419 137.343 36.3649 136.942 36.5244V35.4512C137.093 35.3965 137.259 35.3441 137.441 35.2939C137.628 35.2393 137.824 35.1914 138.029 35.1504C138.234 35.1094 138.449 35.0775 138.672 35.0547C138.895 35.0273 139.121 35.0137 139.349 35.0137C139.763 35.0137 140.137 35.0592 140.47 35.1504C140.802 35.2415 141.083 35.3805 141.311 35.5674C141.543 35.7542 141.721 35.9889 141.844 36.2715C141.967 36.554 142.028 36.8867 142.028 37.2695V42H140.962ZM140.832 38.876H139.321C139.025 38.876 138.77 38.9056 138.556 38.9648C138.341 39.0241 138.166 39.1084 138.029 39.2178C137.893 39.3271 137.79 39.4593 137.722 39.6143C137.658 39.7646 137.626 39.9355 137.626 40.127C137.626 40.2591 137.646 40.3867 137.688 40.5098C137.729 40.6283 137.795 40.7354 137.886 40.8311C137.977 40.9222 138.095 40.9951 138.241 41.0498C138.387 41.1045 138.565 41.1318 138.774 41.1318C139.048 41.1318 139.36 41.0498 139.711 40.8857C140.066 40.7171 140.44 40.4528 140.832 40.0928V38.876ZM149.145 42V37.0713C149.145 36.8571 149.135 36.6816 149.117 36.5449C149.104 36.4082 149.078 36.3011 149.042 36.2236C149.01 36.1416 148.967 36.0846 148.912 36.0527C148.862 36.0208 148.798 36.0049 148.721 36.0049C148.63 36.0049 148.545 36.0322 148.468 36.0869C148.39 36.1416 148.306 36.2305 148.215 36.3535C148.128 36.4766 148.03 36.6406 147.921 36.8457C147.816 37.0462 147.691 37.2946 147.545 37.5908V42H146.458V37.2012C146.458 36.9505 146.449 36.7477 146.431 36.5928C146.417 36.4378 146.392 36.3171 146.355 36.2305C146.324 36.1439 146.28 36.0846 146.226 36.0527C146.171 36.0208 146.105 36.0049 146.027 36.0049C145.945 36.0049 145.868 36.0277 145.795 36.0732C145.722 36.1188 145.64 36.2008 145.549 36.3193C145.462 36.4378 145.364 36.5996 145.255 36.8047C145.146 37.0098 145.016 37.2718 144.865 37.5908V42H143.771V35.1367H144.681L144.735 36.4424C144.854 36.1826 144.968 35.9616 145.077 35.7793C145.191 35.597 145.307 35.4512 145.426 35.3418C145.544 35.2279 145.67 35.1458 145.802 35.0957C145.938 35.041 146.089 35.0137 146.253 35.0137C146.622 35.0137 146.902 35.1344 147.094 35.376C147.285 35.6175 147.381 35.9912 147.381 36.4971C147.49 36.2601 147.597 36.0505 147.702 35.8682C147.807 35.6813 147.919 35.5264 148.037 35.4033C148.16 35.2757 148.295 35.18 148.44 35.1162C148.586 35.0479 148.755 35.0137 148.946 35.0137C149.808 35.0137 150.238 35.6768 150.238 37.0029V42H149.145ZM157.744 38.2061C157.744 38.3747 157.742 38.516 157.737 38.6299C157.733 38.7438 157.726 38.8509 157.717 38.9512H152.897C152.897 39.653 153.093 40.193 153.485 40.5713C153.877 40.945 154.442 41.1318 155.181 41.1318C155.381 41.1318 155.582 41.125 155.782 41.1113C155.983 41.0931 156.176 41.0703 156.363 41.043C156.55 41.0156 156.728 40.986 156.896 40.9541C157.07 40.9176 157.229 40.8789 157.375 40.8379V41.8154C157.051 41.9066 156.685 41.9795 156.274 42.0342C155.869 42.0934 155.447 42.123 155.01 42.123C154.422 42.123 153.916 42.0433 153.492 41.8838C153.068 41.7243 152.72 41.4941 152.446 41.1934C152.177 40.888 151.977 40.5166 151.845 40.0791C151.717 39.637 151.653 39.138 151.653 38.582C151.653 38.099 151.722 37.6432 151.858 37.2148C152 36.7819 152.202 36.4036 152.467 36.0801C152.736 35.752 153.064 35.4922 153.451 35.3008C153.839 35.1094 154.278 35.0137 154.771 35.0137C155.249 35.0137 155.673 35.0889 156.042 35.2393C156.411 35.3896 156.721 35.6038 156.972 35.8818C157.227 36.1553 157.418 36.4902 157.546 36.8867C157.678 37.2786 157.744 37.7184 157.744 38.2061ZM156.507 38.0352C156.521 37.7298 156.491 37.4518 156.418 37.2012C156.345 36.946 156.231 36.7272 156.076 36.5449C155.926 36.3626 155.737 36.2214 155.509 36.1211C155.281 36.0163 155.017 35.9639 154.716 35.9639C154.456 35.9639 154.219 36.014 154.005 36.1143C153.791 36.2145 153.606 36.3558 153.451 36.5381C153.296 36.7204 153.171 36.9391 153.075 37.1943C152.979 37.4495 152.92 37.7298 152.897 38.0352H156.507ZM161.046 31.8213C163.147 33.7673 164.197 35.932 164.197 38.3154C164.197 38.8076 164.147 39.318 164.047 39.8467C163.947 40.3753 163.776 40.9176 163.534 41.4736C163.293 42.0251 162.967 42.5856 162.557 43.1553C162.151 43.7249 161.638 44.2969 161.019 44.8711L160.328 44.167C161.217 43.2874 161.88 42.3691 162.317 41.4121C162.755 40.4551 162.974 39.4525 162.974 38.4043C162.974 36.235 162.092 34.2845 160.328 32.5527L161.046 31.8213ZM180.077 44.8027H179.571C178.692 44.8027 178.038 44.5954 177.609 44.1807C177.181 43.7705 176.967 43.1462 176.967 42.3076V39.9561C176.967 39.7327 176.942 39.5345 176.892 39.3613C176.841 39.1836 176.753 39.0355 176.625 38.917C176.502 38.7939 176.336 38.7005 176.126 38.6367C175.921 38.5729 175.661 38.541 175.347 38.541H175.053V37.5908H175.347C175.679 37.5908 175.951 37.5635 176.16 37.5088C176.37 37.4541 176.534 37.3721 176.652 37.2627C176.771 37.1488 176.853 37.0052 176.898 36.832C176.944 36.6589 176.967 36.4538 176.967 36.2168V34.5967C176.967 34.2139 177.012 33.8698 177.104 33.5645C177.195 33.2546 177.343 32.9925 177.548 32.7783C177.757 32.5596 178.026 32.3932 178.354 32.2793C178.687 32.1608 179.093 32.1016 179.571 32.1016H180.077V33.0586H179.674C178.617 33.0586 178.088 33.5713 178.088 34.5967V36.1895C178.088 37.3014 177.607 37.9281 176.646 38.0693C177.616 38.165 178.102 38.7894 178.102 39.9424V42.2803C178.102 43.3239 178.626 43.8457 179.674 43.8457H180.077V44.8027ZM57.4131 57.9043C57.1442 57.9727 56.8662 58.0205 56.5791 58.0479C56.292 58.0798 56.0003 58.0957 55.7041 58.0957C54.8428 58.0957 54.2002 57.902 53.7764 57.5146C53.3525 57.1227 53.1406 56.5234 53.1406 55.7168V52.1348H51.2197V51.1367H53.1406V49.25L54.3301 48.9424V51.1367H57.4131V52.1348H54.3301V55.6211C54.3301 56.1133 54.46 56.4824 54.7197 56.7285C54.984 56.9701 55.3714 57.0908 55.8818 57.0908C56.1006 57.0908 56.3398 57.0749 56.5996 57.043C56.8594 57.0065 57.1305 56.9518 57.4131 56.8789V57.9043ZM65.0967 58H63.9072V53.6182C63.9072 53.0895 63.807 52.6953 63.6064 52.4355C63.4105 52.1712 63.1279 52.0391 62.7588 52.0391C62.5993 52.0391 62.4489 52.0618 62.3076 52.1074C62.1709 52.1484 62.0273 52.2236 61.877 52.333C61.7266 52.4378 61.5625 52.5814 61.3848 52.7637C61.207 52.946 61.002 53.1738 60.7695 53.4473V58H59.5801V48.3408H60.7695V51.1367L60.7285 52.2168C60.9154 51.9935 61.0977 51.8066 61.2754 51.6562C61.4577 51.5013 61.6377 51.376 61.8154 51.2803C61.9977 51.1846 62.1823 51.1162 62.3691 51.0752C62.556 51.0342 62.7497 51.0137 62.9502 51.0137C63.6338 51.0137 64.1624 51.2233 64.5361 51.6426C64.9098 52.0573 65.0967 52.6839 65.0967 53.5225V58ZM69.6152 52.1211H67.585V51.1367H70.8184V57.0088H72.8623V58H67.3594V57.0088H69.6152V52.1211ZM70.0322 48.2588C70.1644 48.2588 70.2874 48.2839 70.4014 48.334C70.5153 48.3796 70.6133 48.4456 70.6953 48.5322C70.7819 48.6188 70.848 48.7191 70.8936 48.833C70.9437 48.9424 70.9688 49.0632 70.9688 49.1953C70.9688 49.3229 70.9437 49.4437 70.8936 49.5576C70.848 49.6715 70.7819 49.7718 70.6953 49.8584C70.6133 49.945 70.5153 50.0133 70.4014 50.0635C70.2874 50.109 70.1644 50.1318 70.0322 50.1318C69.9001 50.1318 69.777 50.109 69.6631 50.0635C69.5492 50.0133 69.4489 49.945 69.3623 49.8584C69.2803 49.7718 69.2142 49.6715 69.1641 49.5576C69.1185 49.4437 69.0957 49.3229 69.0957 49.1953C69.0957 49.0632 69.1185 48.9424 69.1641 48.833C69.2142 48.7191 69.2803 48.6188 69.3623 48.5322C69.4489 48.4456 69.5492 48.3796 69.6631 48.334C69.777 48.2839 69.9001 48.2588 70.0322 48.2588ZM80.4092 56.127C80.4092 56.3685 80.3682 56.585 80.2861 56.7764C80.2041 56.9678 80.0924 57.1387 79.9512 57.2891C79.8099 57.4349 79.6458 57.5602 79.459 57.665C79.2721 57.7699 79.0716 57.8564 78.8574 57.9248C78.6478 57.9932 78.4313 58.0433 78.208 58.0752C77.9847 58.1071 77.766 58.123 77.5518 58.123C77.0869 58.123 76.6585 58.1025 76.2666 58.0615C75.8792 58.0205 75.4987 57.9544 75.125 57.8633V56.7695C75.526 56.8835 75.9248 56.9701 76.3213 57.0293C76.7178 57.0885 77.112 57.1182 77.5039 57.1182C78.0736 57.1182 78.4951 57.0407 78.7686 56.8857C79.042 56.7308 79.1787 56.5098 79.1787 56.2227C79.1787 56.0996 79.1559 55.9902 79.1104 55.8945C79.0693 55.7943 78.9919 55.7008 78.8779 55.6143C78.764 55.5231 78.5863 55.4297 78.3447 55.334C78.1077 55.2383 77.7819 55.1289 77.3672 55.0059C77.0573 54.9147 76.7702 54.8122 76.5059 54.6982C76.2461 54.5798 76.0205 54.4408 75.8291 54.2812C75.6377 54.1217 75.4873 53.9349 75.3779 53.7207C75.2686 53.5065 75.2139 53.2536 75.2139 52.9619C75.2139 52.7705 75.2572 52.5609 75.3438 52.333C75.4349 52.1051 75.5876 51.8932 75.8018 51.6973C76.016 51.5013 76.3053 51.3395 76.6699 51.2119C77.0345 51.0798 77.4902 51.0137 78.0371 51.0137C78.306 51.0137 78.6045 51.0296 78.9326 51.0615C79.2607 51.0889 79.6025 51.139 79.958 51.2119V52.2715C79.5843 52.1803 79.2288 52.1143 78.8916 52.0732C78.5589 52.0277 78.2695 52.0049 78.0234 52.0049C77.7272 52.0049 77.4766 52.0277 77.2715 52.0732C77.071 52.1188 76.9069 52.1826 76.7793 52.2646C76.6562 52.3421 76.5674 52.4355 76.5127 52.5449C76.458 52.6497 76.4307 52.7637 76.4307 52.8867C76.4307 53.0098 76.4535 53.1214 76.499 53.2217C76.5492 53.3219 76.638 53.4199 76.7656 53.5156C76.8978 53.6068 77.0801 53.7002 77.3125 53.7959C77.5449 53.887 77.848 53.9873 78.2217 54.0967C78.6273 54.2152 78.9691 54.3405 79.2471 54.4727C79.5251 54.6003 79.7507 54.7438 79.9238 54.9033C80.097 55.0628 80.2201 55.2428 80.293 55.4434C80.3704 55.6439 80.4092 55.8717 80.4092 56.127ZM85.3721 55.8467C85.527 55.8467 85.6729 55.8763 85.8096 55.9355C85.9508 55.9948 86.0716 56.0768 86.1719 56.1816C86.2767 56.2865 86.3587 56.4095 86.418 56.5508C86.4772 56.6875 86.5068 56.8356 86.5068 56.9951C86.5068 57.1501 86.4772 57.2959 86.418 57.4326C86.3587 57.5693 86.2767 57.6901 86.1719 57.7949C86.0716 57.8952 85.9508 57.9749 85.8096 58.0342C85.6729 58.0934 85.527 58.123 85.3721 58.123C85.2126 58.123 85.0645 58.0934 84.9277 58.0342C84.791 57.9749 84.6702 57.8952 84.5654 57.7949C84.4652 57.6901 84.3854 57.5693 84.3262 57.4326C84.2669 57.2959 84.2373 57.1501 84.2373 56.9951C84.2373 56.8356 84.2669 56.6875 84.3262 56.5508C84.3854 56.4095 84.4652 56.2865 84.5654 56.1816C84.6702 56.0768 84.791 55.9948 84.9277 55.9355C85.0645 55.8763 85.2126 55.8467 85.3721 55.8467ZM90.3691 51.1367H91.4287L91.4766 52.2441C91.6771 52.0072 91.8708 51.8112 92.0576 51.6562C92.2445 51.4967 92.4268 51.3691 92.6045 51.2734C92.7868 51.1777 92.9714 51.1117 93.1582 51.0752C93.3451 51.0342 93.5387 51.0137 93.7393 51.0137C94.4456 51.0137 94.9788 51.2233 95.3389 51.6426C95.7035 52.0573 95.8857 52.6839 95.8857 53.5225V58H94.6963V53.6182C94.6963 53.0804 94.596 52.6839 94.3955 52.4287C94.195 52.1689 93.8965 52.0391 93.5 52.0391C93.3542 52.0391 93.2106 52.0618 93.0693 52.1074C92.9326 52.1484 92.7891 52.2236 92.6387 52.333C92.4883 52.4378 92.3242 52.5814 92.1465 52.7637C91.9733 52.946 91.7773 53.1738 91.5586 53.4473V58H90.3691V51.1367ZM102.476 58L102.448 57.0771C102.075 57.4463 101.694 57.7129 101.307 57.877C100.924 58.041 100.521 58.123 100.097 58.123C99.7048 58.123 99.3698 58.0729 99.0918 57.9727C98.8138 57.8724 98.5837 57.7357 98.4014 57.5625C98.2236 57.3848 98.0915 57.1774 98.0049 56.9404C97.9229 56.7035 97.8818 56.446 97.8818 56.168C97.8818 55.4798 98.137 54.9421 98.6475 54.5547C99.1624 54.1628 99.9212 53.9668 100.924 53.9668H102.346V53.3652C102.346 52.9596 102.216 52.6361 101.956 52.3945C101.696 52.1484 101.3 52.0254 100.767 52.0254C100.379 52.0254 99.9964 52.0687 99.6182 52.1553C99.2445 52.2419 98.8571 52.3649 98.4561 52.5244V51.4512C98.6064 51.3965 98.7728 51.3441 98.9551 51.2939C99.1419 51.2393 99.3379 51.1914 99.543 51.1504C99.748 51.1094 99.9622 51.0775 100.186 51.0547C100.409 51.0273 100.634 51.0137 100.862 51.0137C101.277 51.0137 101.651 51.0592 101.983 51.1504C102.316 51.2415 102.596 51.3805 102.824 51.5674C103.057 51.7542 103.234 51.9889 103.357 52.2715C103.48 52.554 103.542 52.8867 103.542 53.2695V58H102.476ZM102.346 54.876H100.835C100.539 54.876 100.284 54.9056 100.069 54.9648C99.8551 55.0241 99.6797 55.1084 99.543 55.2178C99.4062 55.3271 99.3037 55.4593 99.2354 55.6143C99.1715 55.7646 99.1396 55.9355 99.1396 56.127C99.1396 56.2591 99.1602 56.3867 99.2012 56.5098C99.2422 56.6283 99.3083 56.7354 99.3994 56.8311C99.4906 56.9222 99.609 56.9951 99.7549 57.0498C99.9007 57.1045 100.078 57.1318 100.288 57.1318C100.562 57.1318 100.874 57.0498 101.225 56.8857C101.58 56.7171 101.954 56.4528 102.346 56.0928V54.876ZM110.658 58V53.0713C110.658 52.8571 110.649 52.6816 110.631 52.5449C110.617 52.4082 110.592 52.3011 110.556 52.2236C110.524 52.1416 110.48 52.0846 110.426 52.0527C110.376 52.0208 110.312 52.0049 110.234 52.0049C110.143 52.0049 110.059 52.0322 109.981 52.0869C109.904 52.1416 109.82 52.2305 109.729 52.3535C109.642 52.4766 109.544 52.6406 109.435 52.8457C109.33 53.0462 109.204 53.2946 109.059 53.5908V58H107.972V53.2012C107.972 52.9505 107.963 52.7477 107.944 52.5928C107.931 52.4378 107.906 52.3171 107.869 52.2305C107.837 52.1439 107.794 52.0846 107.739 52.0527C107.685 52.0208 107.618 52.0049 107.541 52.0049C107.459 52.0049 107.382 52.0277 107.309 52.0732C107.236 52.1188 107.154 52.2008 107.062 52.3193C106.976 52.4378 106.878 52.5996 106.769 52.8047C106.659 53.0098 106.529 53.2718 106.379 53.5908V58H105.285V51.1367H106.194L106.249 52.4424C106.368 52.1826 106.481 51.9616 106.591 51.7793C106.705 51.597 106.821 51.4512 106.939 51.3418C107.058 51.2279 107.183 51.1458 107.315 51.0957C107.452 51.041 107.603 51.0137 107.767 51.0137C108.136 51.0137 108.416 51.1344 108.607 51.376C108.799 51.6175 108.895 51.9912 108.895 52.4971C109.004 52.2601 109.111 52.0505 109.216 51.8682C109.321 51.6813 109.432 51.5264 109.551 51.4033C109.674 51.2757 109.808 51.18 109.954 51.1162C110.1 51.0479 110.269 51.0137 110.46 51.0137C111.321 51.0137 111.752 51.6768 111.752 53.0029V58H110.658ZM119.258 54.2061C119.258 54.3747 119.256 54.516 119.251 54.6299C119.246 54.7438 119.24 54.8509 119.23 54.9512H114.411C114.411 55.653 114.607 56.193 114.999 56.5713C115.391 56.945 115.956 57.1318 116.694 57.1318C116.895 57.1318 117.095 57.125 117.296 57.1113C117.496 57.0931 117.69 57.0703 117.877 57.043C118.064 57.0156 118.242 56.986 118.41 56.9541C118.583 56.9176 118.743 56.8789 118.889 56.8379V57.8154C118.565 57.9066 118.198 57.9795 117.788 58.0342C117.382 58.0934 116.961 58.123 116.523 58.123C115.936 58.123 115.43 58.0433 115.006 57.8838C114.582 57.7243 114.233 57.4941 113.96 57.1934C113.691 56.888 113.491 56.5166 113.358 56.0791C113.231 55.637 113.167 55.138 113.167 54.582C113.167 54.099 113.235 53.6432 113.372 53.2148C113.513 52.7819 113.716 52.4036 113.98 52.0801C114.249 51.752 114.577 51.4922 114.965 51.3008C115.352 51.1094 115.792 51.0137 116.284 51.0137C116.763 51.0137 117.187 51.0889 117.556 51.2393C117.925 51.3896 118.235 51.6038 118.485 51.8818C118.741 52.1553 118.932 52.4902 119.06 52.8867C119.192 53.2786 119.258 53.7184 119.258 54.2061ZM118.021 54.0352C118.034 53.7298 118.005 53.4518 117.932 53.2012C117.859 52.946 117.745 52.7272 117.59 52.5449C117.439 52.3626 117.25 52.2214 117.022 52.1211C116.795 52.0163 116.53 51.9639 116.229 51.9639C115.97 51.9639 115.733 52.014 115.519 52.1143C115.304 52.2145 115.12 52.3558 114.965 52.5381C114.81 52.7204 114.685 52.9391 114.589 53.1943C114.493 53.4495 114.434 53.7298 114.411 54.0352H118.021ZM134.55 53.584H128.671V52.5791H134.55V53.584ZM134.55 55.9629H128.671V54.958H134.55V55.9629ZM144.25 51.1367H145.31L145.357 52.2441C145.558 52.0072 145.752 51.8112 145.938 51.6562C146.125 51.4967 146.308 51.3691 146.485 51.2734C146.668 51.1777 146.852 51.1117 147.039 51.0752C147.226 51.0342 147.42 51.0137 147.62 51.0137C148.326 51.0137 148.86 51.2233 149.22 51.6426C149.584 52.0573 149.767 52.6839 149.767 53.5225V58H148.577V53.6182C148.577 53.0804 148.477 52.6839 148.276 52.4287C148.076 52.1689 147.777 52.0391 147.381 52.0391C147.235 52.0391 147.091 52.0618 146.95 52.1074C146.813 52.1484 146.67 52.2236 146.52 52.333C146.369 52.4378 146.205 52.5814 146.027 52.7637C145.854 52.946 145.658 53.1738 145.439 53.4473V58H144.25V51.1367ZM156.356 58L156.329 57.0771C155.955 57.4463 155.575 57.7129 155.188 57.877C154.805 58.041 154.401 58.123 153.978 58.123C153.586 58.123 153.251 58.0729 152.973 57.9727C152.695 57.8724 152.465 57.7357 152.282 57.5625C152.104 57.3848 151.972 57.1774 151.886 56.9404C151.804 56.7035 151.763 56.446 151.763 56.168C151.763 55.4798 152.018 54.9421 152.528 54.5547C153.043 54.1628 153.802 53.9668 154.805 53.9668H156.227V53.3652C156.227 52.9596 156.097 52.6361 155.837 52.3945C155.577 52.1484 155.181 52.0254 154.647 52.0254C154.26 52.0254 153.877 52.0687 153.499 52.1553C153.125 52.2419 152.738 52.3649 152.337 52.5244V51.4512C152.487 51.3965 152.654 51.3441 152.836 51.2939C153.023 51.2393 153.219 51.1914 153.424 51.1504C153.629 51.1094 153.843 51.0775 154.066 51.0547C154.29 51.0273 154.515 51.0137 154.743 51.0137C155.158 51.0137 155.532 51.0592 155.864 51.1504C156.197 51.2415 156.477 51.3805 156.705 51.5674C156.938 51.7542 157.115 51.9889 157.238 52.2715C157.361 52.554 157.423 52.8867 157.423 53.2695V58H156.356ZM156.227 54.876H154.716C154.42 54.876 154.164 54.9056 153.95 54.9648C153.736 55.0241 153.561 55.1084 153.424 55.2178C153.287 55.3271 153.185 55.4593 153.116 55.6143C153.052 55.7646 153.021 55.9355 153.021 56.127C153.021 56.2591 153.041 56.3867 153.082 56.5098C153.123 56.6283 153.189 56.7354 153.28 56.8311C153.371 56.9222 153.49 56.9951 153.636 57.0498C153.782 57.1045 153.959 57.1318 154.169 57.1318C154.442 57.1318 154.755 57.0498 155.105 56.8857C155.461 56.7171 155.835 56.4528 156.227 56.0928V54.876ZM164.539 58V53.0713C164.539 52.8571 164.53 52.6816 164.512 52.5449C164.498 52.4082 164.473 52.3011 164.437 52.2236C164.405 52.1416 164.361 52.0846 164.307 52.0527C164.257 52.0208 164.193 52.0049 164.115 52.0049C164.024 52.0049 163.94 52.0322 163.862 52.0869C163.785 52.1416 163.701 52.2305 163.609 52.3535C163.523 52.4766 163.425 52.6406 163.315 52.8457C163.211 53.0462 163.085 53.2946 162.939 53.5908V58H161.853V53.2012C161.853 52.9505 161.843 52.7477 161.825 52.5928C161.812 52.4378 161.786 52.3171 161.75 52.2305C161.718 52.1439 161.675 52.0846 161.62 52.0527C161.565 52.0208 161.499 52.0049 161.422 52.0049C161.34 52.0049 161.262 52.0277 161.189 52.0732C161.117 52.1188 161.035 52.2008 160.943 52.3193C160.857 52.4378 160.759 52.5996 160.649 52.8047C160.54 53.0098 160.41 53.2718 160.26 53.5908V58H159.166V51.1367H160.075L160.13 52.4424C160.248 52.1826 160.362 51.9616 160.472 51.7793C160.586 51.597 160.702 51.4512 160.82 51.3418C160.939 51.2279 161.064 51.1458 161.196 51.0957C161.333 51.041 161.483 51.0137 161.647 51.0137C162.017 51.0137 162.297 51.1344 162.488 51.376C162.68 51.6175 162.775 51.9912 162.775 52.4971C162.885 52.2601 162.992 52.0505 163.097 51.8682C163.201 51.6813 163.313 51.5264 163.432 51.4033C163.555 51.2757 163.689 51.18 163.835 51.1162C163.981 51.0479 164.149 51.0137 164.341 51.0137C165.202 51.0137 165.633 51.6768 165.633 53.0029V58H164.539ZM173.139 54.2061C173.139 54.3747 173.136 54.516 173.132 54.6299C173.127 54.7438 173.12 54.8509 173.111 54.9512H168.292C168.292 55.653 168.488 56.193 168.88 56.5713C169.272 56.945 169.837 57.1318 170.575 57.1318C170.776 57.1318 170.976 57.125 171.177 57.1113C171.377 57.0931 171.571 57.0703 171.758 57.043C171.945 57.0156 172.122 56.986 172.291 56.9541C172.464 56.9176 172.624 56.8789 172.77 56.8379V57.8154C172.446 57.9066 172.079 57.9795 171.669 58.0342C171.263 58.0934 170.842 58.123 170.404 58.123C169.816 58.123 169.311 58.0433 168.887 57.8838C168.463 57.7243 168.114 57.4941 167.841 57.1934C167.572 56.888 167.371 56.5166 167.239 56.0791C167.112 55.637 167.048 55.138 167.048 54.582C167.048 54.099 167.116 53.6432 167.253 53.2148C167.394 52.7819 167.597 52.4036 167.861 52.0801C168.13 51.752 168.458 51.4922 168.846 51.3008C169.233 51.1094 169.673 51.0137 170.165 51.0137C170.644 51.0137 171.067 51.0889 171.437 51.2393C171.806 51.3896 172.116 51.6038 172.366 51.8818C172.621 52.1553 172.813 52.4902 172.94 52.8867C173.073 53.2786 173.139 53.7184 173.139 54.2061ZM171.901 54.0352C171.915 53.7298 171.885 53.4518 171.812 53.2012C171.74 52.946 171.626 52.7272 171.471 52.5449C171.32 52.3626 171.131 52.2214 170.903 52.1211C170.675 52.0163 170.411 51.9639 170.11 51.9639C169.851 51.9639 169.614 52.014 169.399 52.1143C169.185 52.2145 169.001 52.3558 168.846 52.5381C168.691 52.7204 168.565 52.9391 168.47 53.1943C168.374 53.4495 168.315 53.7298 168.292 54.0352H171.901ZM175.654 59.4014C175.887 59.4105 176.112 59.39 176.331 59.3398C176.55 59.2897 176.741 59.2145 176.905 59.1143C177.074 59.0186 177.208 58.8978 177.309 58.752C177.409 58.6061 177.459 58.4398 177.459 58.2529C177.459 58.0615 177.425 57.9066 177.356 57.7881C177.293 57.6696 177.22 57.5602 177.138 57.46C177.056 57.3597 176.98 57.2526 176.912 57.1387C176.848 57.0247 176.816 56.8721 176.816 56.6807C176.816 56.585 176.835 56.4847 176.871 56.3799C176.908 56.2751 176.962 56.1794 177.035 56.0928C177.113 56.0062 177.208 55.9355 177.322 55.8809C177.441 55.8262 177.58 55.7988 177.739 55.7988C177.899 55.7988 178.051 55.833 178.197 55.9014C178.348 55.9652 178.478 56.0654 178.587 56.2021C178.701 56.3389 178.79 56.5098 178.854 56.7148C178.922 56.9199 178.956 57.1615 178.956 57.4395C178.956 57.8177 178.885 58.18 178.744 58.5264C178.607 58.8773 178.4 59.1872 178.122 59.4561C177.849 59.7249 177.505 59.9391 177.09 60.0986C176.68 60.2581 176.201 60.3379 175.654 60.3379V59.4014ZM177.794 51.0137C177.935 51.0137 178.07 51.0433 178.197 51.1025C178.325 51.1572 178.437 51.2324 178.532 51.3281C178.628 51.4238 178.703 51.5355 178.758 51.6631C178.817 51.7907 178.847 51.9251 178.847 52.0664C178.847 52.2122 178.817 52.349 178.758 52.4766C178.703 52.5996 178.628 52.709 178.532 52.8047C178.437 52.9004 178.325 52.9756 178.197 53.0303C178.07 53.085 177.935 53.1123 177.794 53.1123C177.648 53.1123 177.511 53.085 177.384 53.0303C177.261 52.9756 177.151 52.9004 177.056 52.8047C176.96 52.709 176.885 52.5996 176.83 52.4766C176.775 52.349 176.748 52.2122 176.748 52.0664C176.748 51.9251 176.775 51.7907 176.83 51.6631C176.885 51.5355 176.96 51.4238 177.056 51.3281C177.151 51.2324 177.261 51.1572 177.384 51.1025C177.511 51.0433 177.648 51.0137 177.794 51.0137ZM36.96 64.1016H37.4658C38.3454 64.1016 38.9993 64.3089 39.4277 64.7236C39.8561 65.1338 40.0703 65.7581 40.0703 66.5967V68.1758C40.0703 68.3991 40.0954 68.5996 40.1455 68.7773C40.1956 68.9505 40.2822 69.0986 40.4053 69.2217C40.5329 69.3402 40.7015 69.4313 40.9111 69.4951C41.1208 69.5589 41.3828 69.5908 41.6973 69.5908H41.9912V70.541H41.6973C41.3646 70.541 41.0911 70.5684 40.877 70.623C40.6673 70.6777 40.5033 70.762 40.3848 70.876C40.2663 70.9854 40.1842 71.1266 40.1387 71.2998C40.0931 71.473 40.0703 71.6781 40.0703 71.915V74.3076C40.0703 74.6904 40.0247 75.0345 39.9336 75.3398C39.8424 75.6497 39.6943 75.9118 39.4893 76.126C39.2842 76.3447 39.0153 76.5111 38.6826 76.625C38.3499 76.7435 37.9443 76.8027 37.4658 76.8027H36.96V75.8457H37.3701C38.4229 75.8457 38.9492 75.333 38.9492 74.3076V71.9424C38.9492 70.8304 39.43 70.2061 40.3916 70.0693C39.4209 69.9645 38.9355 69.3379 38.9355 68.1895V66.624C38.9355 65.5804 38.4137 65.0586 37.3701 65.0586H36.96V64.1016ZM41.9229 88.127C41.9229 88.3685 41.8818 88.585 41.7998 88.7764C41.7178 88.9678 41.6061 89.1387 41.4648 89.2891C41.3236 89.4349 41.1595 89.5602 40.9727 89.665C40.7858 89.7699 40.5853 89.8564 40.3711 89.9248C40.1615 89.9932 39.945 90.0433 39.7217 90.0752C39.4984 90.1071 39.2796 90.123 39.0654 90.123C38.6006 90.123 38.1722 90.1025 37.7803 90.0615C37.3929 90.0205 37.0124 89.9544 36.6387 89.8633V88.7695C37.0397 88.8835 37.4385 88.9701 37.835 89.0293C38.2314 89.0885 38.6257 89.1182 39.0176 89.1182C39.5872 89.1182 40.0088 89.0407 40.2822 88.8857C40.5557 88.7308 40.6924 88.5098 40.6924 88.2227C40.6924 88.0996 40.6696 87.9902 40.624 87.8945C40.583 87.7943 40.5055 87.7008 40.3916 87.6143C40.2777 87.5231 40.0999 87.4297 39.8584 87.334C39.6214 87.2383 39.2956 87.1289 38.8809 87.0059C38.571 86.9147 38.2839 86.8122 38.0195 86.6982C37.7598 86.5798 37.5342 86.4408 37.3428 86.2812C37.1514 86.1217 37.001 85.9349 36.8916 85.7207C36.7822 85.5065 36.7275 85.2536 36.7275 84.9619C36.7275 84.7705 36.7708 84.5609 36.8574 84.333C36.9486 84.1051 37.1012 83.8932 37.3154 83.6973C37.5296 83.5013 37.819 83.3395 38.1836 83.2119C38.5482 83.0798 39.0039 83.0137 39.5508 83.0137C39.8197 83.0137 40.1182 83.0296 40.4463 83.0615C40.7744 83.0889 41.1162 83.139 41.4717 83.2119V84.2715C41.098 84.1803 40.7425 84.1143 40.4053 84.0732C40.0726 84.0277 39.7832 84.0049 39.5371 84.0049C39.2409 84.0049 38.9902 84.0277 38.7852 84.0732C38.5846 84.1188 38.4206 84.1826 38.293 84.2646C38.1699 84.3421 38.0811 84.4355 38.0264 84.5449C37.9717 84.6497 37.9443 84.7637 37.9443 84.8867C37.9443 85.0098 37.9671 85.1214 38.0127 85.2217C38.0628 85.3219 38.1517 85.4199 38.2793 85.5156C38.4115 85.6068 38.5938 85.7002 38.8262 85.7959C39.0586 85.887 39.3617 85.9873 39.7354 86.0967C40.141 86.2152 40.4827 86.3405 40.7607 86.4727C41.0387 86.6003 41.2643 86.7438 41.4375 86.9033C41.6107 87.0628 41.7337 87.2428 41.8066 87.4434C41.8841 87.6439 41.9229 87.8717 41.9229 88.127ZM49.7158 89.9043C49.4469 89.9727 49.1689 90.0205 48.8818 90.0479C48.5947 90.0798 48.3031 90.0957 48.0068 90.0957C47.1455 90.0957 46.5029 89.902 46.0791 89.5146C45.6553 89.1227 45.4434 88.5234 45.4434 87.7168V84.1348H43.5225V83.1367H45.4434V81.25L46.6328 80.9424V83.1367H49.7158V84.1348H46.6328V87.6211C46.6328 88.1133 46.7627 88.4824 47.0225 88.7285C47.2868 88.9701 47.6742 89.0908 48.1846 89.0908C48.4033 89.0908 48.6426 89.0749 48.9023 89.043C49.1621 89.0065 49.4333 88.9518 49.7158 88.8789V89.9043ZM56.292 90L56.2646 89.0771C55.891 89.4463 55.5104 89.7129 55.123 89.877C54.7402 90.041 54.3369 90.123 53.9131 90.123C53.5212 90.123 53.1862 90.0729 52.9082 89.9727C52.6302 89.8724 52.4001 89.7357 52.2178 89.5625C52.04 89.3848 51.9079 89.1774 51.8213 88.9404C51.7393 88.7035 51.6982 88.446 51.6982 88.168C51.6982 87.4798 51.9535 86.9421 52.4639 86.5547C52.9788 86.1628 53.7376 85.9668 54.7402 85.9668H56.1621V85.3652C56.1621 84.9596 56.0322 84.6361 55.7725 84.3945C55.5127 84.1484 55.1162 84.0254 54.583 84.0254C54.1956 84.0254 53.8128 84.0687 53.4346 84.1553C53.0609 84.2419 52.6735 84.3649 52.2725 84.5244V83.4512C52.4229 83.3965 52.5892 83.3441 52.7715 83.2939C52.9583 83.2393 53.1543 83.1914 53.3594 83.1504C53.5645 83.1094 53.7786 83.0775 54.002 83.0547C54.2253 83.0273 54.4508 83.0137 54.6787 83.0137C55.0934 83.0137 55.4671 83.0592 55.7998 83.1504C56.1325 83.2415 56.4128 83.3805 56.6406 83.5674C56.873 83.7542 57.0508 83.9889 57.1738 84.2715C57.2969 84.554 57.3584 84.8867 57.3584 85.2695V90H56.292ZM56.1621 86.876H54.6514C54.3551 86.876 54.0999 86.9056 53.8857 86.9648C53.6715 87.0241 53.4961 87.1084 53.3594 87.2178C53.2227 87.3271 53.1201 87.4593 53.0518 87.6143C52.988 87.7646 52.9561 87.9355 52.9561 88.127C52.9561 88.2591 52.9766 88.3867 53.0176 88.5098C53.0586 88.6283 53.1247 88.7354 53.2158 88.8311C53.307 88.9222 53.4255 88.9951 53.5713 89.0498C53.7171 89.1045 53.8949 89.1318 54.1045 89.1318C54.3779 89.1318 54.6901 89.0498 55.041 88.8857C55.3965 88.7171 55.7702 88.4528 56.1621 88.0928V86.876ZM65.1104 89.9043C64.8415 89.9727 64.5635 90.0205 64.2764 90.0479C63.9893 90.0798 63.6976 90.0957 63.4014 90.0957C62.54 90.0957 61.8975 89.902 61.4736 89.5146C61.0498 89.1227 60.8379 88.5234 60.8379 87.7168V84.1348H58.917V83.1367H60.8379V81.25L62.0273 80.9424V83.1367H65.1104V84.1348H62.0273V87.6211C62.0273 88.1133 62.1572 88.4824 62.417 88.7285C62.6813 88.9701 63.0687 89.0908 63.5791 89.0908C63.7979 89.0908 64.0371 89.0749 64.2969 89.043C64.5566 89.0065 64.8278 88.9518 65.1104 88.8789V89.9043ZM69.6152 84.1211H67.585V83.1367H70.8184V89.0088H72.8623V90H67.3594V89.0088H69.6152V84.1211ZM70.0322 80.2588C70.1644 80.2588 70.2874 80.2839 70.4014 80.334C70.5153 80.3796 70.6133 80.4456 70.6953 80.5322C70.7819 80.6188 70.848 80.7191 70.8936 80.833C70.9437 80.9424 70.9688 81.0632 70.9688 81.1953C70.9688 81.3229 70.9437 81.4437 70.8936 81.5576C70.848 81.6715 70.7819 81.7718 70.6953 81.8584C70.6133 81.945 70.5153 82.0133 70.4014 82.0635C70.2874 82.109 70.1644 82.1318 70.0322 82.1318C69.9001 82.1318 69.777 82.109 69.6631 82.0635C69.5492 82.0133 69.4489 81.945 69.3623 81.8584C69.2803 81.7718 69.2142 81.6715 69.1641 81.5576C69.1185 81.4437 69.0957 81.3229 69.0957 81.1953C69.0957 81.0632 69.1185 80.9424 69.1641 80.833C69.2142 80.7191 69.2803 80.6188 69.3623 80.5322C69.4489 80.4456 69.5492 80.3796 69.6631 80.334C69.777 80.2839 69.9001 80.2588 70.0322 80.2588ZM80.3066 89.7471C79.9967 89.8656 79.6777 89.9521 79.3496 90.0068C79.026 90.0661 78.6911 90.0957 78.3447 90.0957C77.2601 90.0957 76.4238 89.8018 75.8359 89.2139C75.2526 88.626 74.9609 87.7669 74.9609 86.6367C74.9609 86.0944 75.0452 85.6022 75.2139 85.1602C75.3825 84.7181 75.6195 84.3398 75.9248 84.0254C76.2301 83.7109 76.5947 83.4694 77.0186 83.3008C77.4424 83.1276 77.9095 83.041 78.4199 83.041C78.7754 83.041 79.1081 83.0661 79.418 83.1162C79.7279 83.1663 80.0241 83.2484 80.3066 83.3623V84.4971C80.0104 84.3421 79.7074 84.2305 79.3975 84.1621C79.0921 84.0892 78.7754 84.0527 78.4473 84.0527C78.1419 84.0527 77.8525 84.112 77.5791 84.2305C77.3102 84.3444 77.0732 84.5107 76.8682 84.7295C76.6631 84.9482 76.5013 85.2148 76.3828 85.5293C76.2643 85.8438 76.2051 86.1992 76.2051 86.5957C76.2051 87.4251 76.4056 88.0472 76.8066 88.4619C77.2122 88.8721 77.7728 89.0771 78.4883 89.0771C78.8118 89.0771 79.124 89.0407 79.4248 88.9678C79.7301 88.8949 80.0241 88.7855 80.3066 88.6396V89.7471ZM95.8857 90H94.6963V85.6182C94.6963 85.0895 94.596 84.6953 94.3955 84.4355C94.1995 84.1712 93.917 84.0391 93.5479 84.0391C93.3883 84.0391 93.238 84.0618 93.0967 84.1074C92.96 84.1484 92.8164 84.2236 92.666 84.333C92.5156 84.4378 92.3516 84.5814 92.1738 84.7637C91.9961 84.946 91.791 85.1738 91.5586 85.4473V90H90.3691V80.3408H91.5586V83.1367L91.5176 84.2168C91.7044 83.9935 91.8867 83.8066 92.0645 83.6562C92.2467 83.5013 92.4268 83.376 92.6045 83.2803C92.7868 83.1846 92.9714 83.1162 93.1582 83.0752C93.3451 83.0342 93.5387 83.0137 93.7393 83.0137C94.4229 83.0137 94.9515 83.2233 95.3252 83.6426C95.6989 84.0573 95.8857 84.6839 95.8857 85.5225V90ZM103.863 86.2061C103.863 86.3747 103.861 86.516 103.856 86.6299C103.852 86.7438 103.845 86.8509 103.836 86.9512H99.0166C99.0166 87.653 99.2126 88.193 99.6045 88.5713C99.9964 88.945 100.562 89.1318 101.3 89.1318C101.5 89.1318 101.701 89.125 101.901 89.1113C102.102 89.0931 102.296 89.0703 102.482 89.043C102.669 89.0156 102.847 88.986 103.016 88.9541C103.189 88.9176 103.348 88.8789 103.494 88.8379V89.8154C103.171 89.9066 102.804 89.9795 102.394 90.0342C101.988 90.0934 101.566 90.123 101.129 90.123C100.541 90.123 100.035 90.0433 99.6113 89.8838C99.1875 89.7243 98.8389 89.4941 98.5654 89.1934C98.2965 88.888 98.096 88.5166 97.9639 88.0791C97.8363 87.637 97.7725 87.138 97.7725 86.582C97.7725 86.099 97.8408 85.6432 97.9775 85.2148C98.1188 84.7819 98.3216 84.4036 98.5859 84.0801C98.8548 83.752 99.1829 83.4922 99.5703 83.3008C99.9577 83.1094 100.397 83.0137 100.89 83.0137C101.368 83.0137 101.792 83.0889 102.161 83.2393C102.53 83.3896 102.84 83.6038 103.091 83.8818C103.346 84.1553 103.537 84.4902 103.665 84.8867C103.797 85.2786 103.863 85.7184 103.863 86.2061ZM102.626 86.0352C102.64 85.7298 102.61 85.4518 102.537 85.2012C102.464 84.946 102.35 84.7272 102.195 84.5449C102.045 84.3626 101.856 84.2214 101.628 84.1211C101.4 84.0163 101.136 83.9639 100.835 83.9639C100.575 83.9639 100.338 84.014 100.124 84.1143C99.9098 84.2145 99.7253 84.3558 99.5703 84.5381C99.4154 84.7204 99.29 84.9391 99.1943 85.1943C99.0986 85.4495 99.0394 85.7298 99.0166 86.0352H102.626ZM108.102 81.3184H106.071V80.3408H109.305V89.0088H111.349V90H105.846V89.0088H108.102V81.3184ZM115.799 81.3184H113.769V80.3408H117.002V89.0088H119.046V90H113.543V89.0088H115.799V81.3184ZM127.133 86.5137C127.133 87.0469 127.058 87.5368 126.907 87.9834C126.757 88.4255 126.54 88.806 126.258 89.125C125.975 89.4395 125.631 89.6855 125.226 89.8633C124.82 90.0365 124.36 90.123 123.845 90.123C123.353 90.123 122.91 90.0479 122.519 89.8975C122.131 89.7425 121.801 89.5169 121.527 89.2207C121.258 88.9245 121.051 88.5576 120.905 88.1201C120.764 87.6826 120.693 87.179 120.693 86.6094C120.693 86.0762 120.769 85.5908 120.919 85.1533C121.069 84.7113 121.286 84.333 121.568 84.0186C121.851 83.6995 122.195 83.4535 122.601 83.2803C123.006 83.1025 123.466 83.0137 123.981 83.0137C124.474 83.0137 124.913 83.0911 125.301 83.2461C125.693 83.3965 126.023 83.6198 126.292 83.916C126.565 84.2077 126.773 84.5723 126.914 85.0098C127.06 85.4473 127.133 85.9486 127.133 86.5137ZM125.916 86.5684C125.916 86.1445 125.868 85.7754 125.772 85.4609C125.681 85.1419 125.549 84.8776 125.376 84.668C125.203 84.4538 124.991 84.2943 124.74 84.1895C124.494 84.0801 124.218 84.0254 123.913 84.0254C123.558 84.0254 123.252 84.096 122.997 84.2373C122.746 84.374 122.539 84.5586 122.375 84.791C122.215 85.0234 122.097 85.2946 122.02 85.6045C121.947 85.9098 121.91 86.2311 121.91 86.5684C121.91 86.9922 121.956 87.3636 122.047 87.6826C122.143 88.0016 122.277 88.2682 122.45 88.4824C122.623 88.6921 122.833 88.8516 123.079 88.9609C123.325 89.0658 123.603 89.1182 123.913 89.1182C124.269 89.1182 124.572 89.0498 124.822 88.9131C125.077 88.7718 125.285 88.585 125.444 88.3525C125.608 88.1201 125.727 87.8512 125.8 87.5459C125.877 87.236 125.916 86.9102 125.916 86.5684ZM132.964 92.8711C130.863 90.9251 129.812 88.7741 129.812 86.418C129.812 85.8665 129.867 85.3174 129.977 84.7705C130.09 84.2191 130.271 83.6676 130.517 83.1162C130.767 82.5648 131.095 82.0133 131.501 81.4619C131.911 80.9105 132.408 80.3636 132.991 79.8213L133.682 80.5254C131.913 82.2708 131.029 84.2054 131.029 86.3291C131.029 87.3864 131.253 88.4027 131.699 89.3779C132.146 90.3532 132.807 91.2738 133.682 92.1396L132.964 92.8711ZM137.954 79.8213C140.055 81.7673 141.105 83.932 141.105 86.3154C141.105 86.8076 141.055 87.318 140.955 87.8467C140.855 88.3753 140.684 88.9176 140.442 89.4736C140.201 90.0251 139.875 90.5856 139.465 91.1553C139.059 91.7249 138.547 92.2969 137.927 92.8711L137.236 92.167C138.125 91.2874 138.788 90.3691 139.226 89.4121C139.663 88.4551 139.882 87.4525 139.882 86.4043C139.882 84.235 139 82.2845 137.236 80.5527L137.954 79.8213ZM156.985 92.8027H156.479C155.6 92.8027 154.946 92.5954 154.518 92.1807C154.089 91.7705 153.875 91.1462 153.875 90.3076V87.9561C153.875 87.7327 153.85 87.5345 153.8 87.3613C153.75 87.1836 153.661 87.0355 153.533 86.917C153.41 86.7939 153.244 86.7005 153.034 86.6367C152.829 86.5729 152.569 86.541 152.255 86.541H151.961V85.5908H152.255C152.588 85.5908 152.859 85.5635 153.068 85.5088C153.278 85.4541 153.442 85.3721 153.561 85.2627C153.679 85.1488 153.761 85.0052 153.807 84.832C153.852 84.6589 153.875 84.4538 153.875 84.2168V82.5967C153.875 82.2139 153.921 81.8698 154.012 81.5645C154.103 81.2546 154.251 80.9925 154.456 80.7783C154.666 80.5596 154.935 80.3932 155.263 80.2793C155.595 80.1608 156.001 80.1016 156.479 80.1016H156.985V81.0586H156.582C155.525 81.0586 154.996 81.5713 154.996 82.5967V84.1895C154.996 85.3014 154.515 85.9281 153.554 86.0693C154.524 86.165 155.01 86.7894 155.01 87.9424V90.2803C155.01 91.3239 155.534 91.8457 156.582 91.8457H156.985V92.8027ZM52.1631 99.1367H53.25L53.2842 100.401C53.6898 99.9137 54.0885 99.5605 54.4805 99.3418C54.877 99.123 55.2757 99.0137 55.6768 99.0137C56.3877 99.0137 56.9255 99.2438 57.29 99.7041C57.6592 100.164 57.8301 100.848 57.8027 101.755H56.5996C56.6133 101.153 56.5244 100.718 56.333 100.449C56.1462 100.176 55.8704 100.039 55.5059 100.039C55.3464 100.039 55.1846 100.069 55.0205 100.128C54.861 100.183 54.6947 100.274 54.5215 100.401C54.3529 100.524 54.1729 100.684 53.9814 100.88C53.79 101.076 53.585 101.313 53.3662 101.591V106H52.1631V99.1367ZM65.377 102.206C65.377 102.375 65.3747 102.516 65.3701 102.63C65.3656 102.744 65.3587 102.851 65.3496 102.951H60.5303C60.5303 103.653 60.7262 104.193 61.1182 104.571C61.5101 104.945 62.0752 105.132 62.8135 105.132C63.014 105.132 63.2145 105.125 63.415 105.111C63.6156 105.093 63.8092 105.07 63.9961 105.043C64.1829 105.016 64.3607 104.986 64.5293 104.954C64.7025 104.918 64.862 104.879 65.0078 104.838V105.815C64.6842 105.907 64.3174 105.979 63.9072 106.034C63.5016 106.093 63.0801 106.123 62.6426 106.123C62.0547 106.123 61.5488 106.043 61.125 105.884C60.7012 105.724 60.3525 105.494 60.0791 105.193C59.8102 104.888 59.6097 104.517 59.4775 104.079C59.3499 103.637 59.2861 103.138 59.2861 102.582C59.2861 102.099 59.3545 101.643 59.4912 101.215C59.6325 100.782 59.8353 100.404 60.0996 100.08C60.3685 99.752 60.6966 99.4922 61.084 99.3008C61.4714 99.1094 61.9111 99.0137 62.4033 99.0137C62.8818 99.0137 63.3057 99.0889 63.6748 99.2393C64.0439 99.3896 64.3538 99.6038 64.6045 99.8818C64.8597 100.155 65.0511 100.49 65.1787 100.887C65.3109 101.279 65.377 101.718 65.377 102.206ZM64.1396 102.035C64.1533 101.73 64.1237 101.452 64.0508 101.201C63.9779 100.946 63.8639 100.727 63.709 100.545C63.5586 100.363 63.3695 100.221 63.1416 100.121C62.9137 100.016 62.6494 99.9639 62.3486 99.9639C62.0889 99.9639 61.8519 100.014 61.6377 100.114C61.4235 100.215 61.2389 100.356 61.084 100.538C60.929 100.72 60.8037 100.939 60.708 101.194C60.6123 101.45 60.5531 101.73 60.5303 102.035H64.1396ZM72.8076 105.904C72.5387 105.973 72.2607 106.021 71.9736 106.048C71.6865 106.08 71.3949 106.096 71.0986 106.096C70.2373 106.096 69.5947 105.902 69.1709 105.515C68.7471 105.123 68.5352 104.523 68.5352 103.717V100.135H66.6143V99.1367H68.5352V97.25L69.7246 96.9424V99.1367H72.8076V100.135H69.7246V103.621C69.7246 104.113 69.8545 104.482 70.1143 104.729C70.3786 104.97 70.766 105.091 71.2764 105.091C71.4951 105.091 71.7344 105.075 71.9941 105.043C72.2539 105.007 72.5251 104.952 72.8076 104.879V105.904ZM80.4912 106H79.4248L79.3838 104.893C79.1787 105.13 78.9827 105.328 78.7959 105.487C78.6136 105.642 78.4313 105.768 78.249 105.863C78.0667 105.959 77.8822 106.025 77.6953 106.062C77.513 106.103 77.3193 106.123 77.1143 106.123C76.4079 106.123 75.8747 105.916 75.5146 105.501C75.1546 105.086 74.9746 104.46 74.9746 103.621V99.1367H76.1641V103.525C76.1641 104.578 76.5605 105.104 77.3535 105.104C77.4993 105.104 77.6406 105.084 77.7773 105.043C77.9186 104.997 78.0645 104.922 78.2148 104.817C78.3698 104.708 78.5339 104.562 78.707 104.38C78.8848 104.198 79.083 103.967 79.3018 103.689V99.1367H80.4912V106ZM82.9521 99.1367H84.0391L84.0732 100.401C84.4788 99.9137 84.8776 99.5605 85.2695 99.3418C85.666 99.123 86.0648 99.0137 86.4658 99.0137C87.1768 99.0137 87.7145 99.2438 88.0791 99.7041C88.4482 100.164 88.6191 100.848 88.5918 101.755H87.3887C87.4023 101.153 87.3135 100.718 87.1221 100.449C86.9352 100.176 86.6595 100.039 86.2949 100.039C86.1354 100.039 85.9736 100.069 85.8096 100.128C85.6501 100.183 85.4837 100.274 85.3105 100.401C85.1419 100.524 84.9619 100.684 84.7705 100.88C84.5791 101.076 84.374 101.313 84.1553 101.591V106H82.9521V99.1367ZM90.3691 99.1367H91.4287L91.4766 100.244C91.6771 100.007 91.8708 99.8112 92.0576 99.6562C92.2445 99.4967 92.4268 99.3691 92.6045 99.2734C92.7868 99.1777 92.9714 99.1117 93.1582 99.0752C93.3451 99.0342 93.5387 99.0137 93.7393 99.0137C94.4456 99.0137 94.9788 99.2233 95.3389 99.6426C95.7035 100.057 95.8857 100.684 95.8857 101.522V106H94.6963V101.618C94.6963 101.08 94.596 100.684 94.3955 100.429C94.195 100.169 93.8965 100.039 93.5 100.039C93.3542 100.039 93.2106 100.062 93.0693 100.107C92.9326 100.148 92.7891 100.224 92.6387 100.333C92.4883 100.438 92.3242 100.581 92.1465 100.764C91.9733 100.946 91.7773 101.174 91.5586 101.447V106H90.3691V99.1367ZM107.944 96.3408L107.753 99.5469H106.632L106.434 96.3408H107.944ZM110.604 96.3408L110.412 99.5469H109.291L109.093 96.3408H110.604ZM119.312 106H118.096V101.898H114.343V106H113.126V97.0654H114.343V100.846H118.096V97.0654H119.312V106ZM126.955 102.206C126.955 102.375 126.953 102.516 126.948 102.63C126.944 102.744 126.937 102.851 126.928 102.951H122.108C122.108 103.653 122.304 104.193 122.696 104.571C123.088 104.945 123.653 105.132 124.392 105.132C124.592 105.132 124.793 105.125 124.993 105.111C125.194 105.093 125.387 105.07 125.574 105.043C125.761 105.016 125.939 104.986 126.107 104.954C126.281 104.918 126.44 104.879 126.586 104.838V105.815C126.262 105.907 125.896 105.979 125.485 106.034C125.08 106.093 124.658 106.123 124.221 106.123C123.633 106.123 123.127 106.043 122.703 105.884C122.279 105.724 121.931 105.494 121.657 105.193C121.388 104.888 121.188 104.517 121.056 104.079C120.928 103.637 120.864 103.138 120.864 102.582C120.864 102.099 120.933 101.643 121.069 101.215C121.211 100.782 121.413 100.404 121.678 100.08C121.947 99.752 122.275 99.4922 122.662 99.3008C123.049 99.1094 123.489 99.0137 123.981 99.0137C124.46 99.0137 124.884 99.0889 125.253 99.2393C125.622 99.3896 125.932 99.6038 126.183 99.8818C126.438 100.155 126.629 100.49 126.757 100.887C126.889 101.279 126.955 101.718 126.955 102.206ZM125.718 102.035C125.731 101.73 125.702 101.452 125.629 101.201C125.556 100.946 125.442 100.727 125.287 100.545C125.137 100.363 124.948 100.221 124.72 100.121C124.492 100.016 124.228 99.9639 123.927 99.9639C123.667 99.9639 123.43 100.014 123.216 100.114C123.002 100.215 122.817 100.356 122.662 100.538C122.507 100.72 122.382 100.939 122.286 101.194C122.19 101.45 122.131 101.73 122.108 102.035H125.718ZM131.193 97.3184H129.163V96.3408H132.396V105.009H134.44V106H128.938V105.009H131.193V97.3184ZM138.891 97.3184H136.86V96.3408H140.094V105.009H142.138V106H136.635V105.009H138.891V97.3184ZM150.225 102.514C150.225 103.047 150.149 103.537 149.999 103.983C149.849 104.425 149.632 104.806 149.35 105.125C149.067 105.439 148.723 105.686 148.317 105.863C147.912 106.036 147.451 106.123 146.937 106.123C146.444 106.123 146.002 106.048 145.61 105.897C145.223 105.743 144.893 105.517 144.619 105.221C144.35 104.924 144.143 104.558 143.997 104.12C143.856 103.683 143.785 103.179 143.785 102.609C143.785 102.076 143.86 101.591 144.011 101.153C144.161 100.711 144.378 100.333 144.66 100.019C144.943 99.6995 145.287 99.4535 145.692 99.2803C146.098 99.1025 146.558 99.0137 147.073 99.0137C147.565 99.0137 148.005 99.0911 148.393 99.2461C148.785 99.3965 149.115 99.6198 149.384 99.916C149.657 100.208 149.865 100.572 150.006 101.01C150.152 101.447 150.225 101.949 150.225 102.514ZM149.008 102.568C149.008 102.145 148.96 101.775 148.864 101.461C148.773 101.142 148.641 100.878 148.468 100.668C148.295 100.454 148.083 100.294 147.832 100.189C147.586 100.08 147.31 100.025 147.005 100.025C146.649 100.025 146.344 100.096 146.089 100.237C145.838 100.374 145.631 100.559 145.467 100.791C145.307 101.023 145.189 101.295 145.111 101.604C145.038 101.91 145.002 102.231 145.002 102.568C145.002 102.992 145.048 103.364 145.139 103.683C145.234 104.002 145.369 104.268 145.542 104.482C145.715 104.692 145.925 104.852 146.171 104.961C146.417 105.066 146.695 105.118 147.005 105.118C147.36 105.118 147.663 105.05 147.914 104.913C148.169 104.772 148.377 104.585 148.536 104.353C148.7 104.12 148.819 103.851 148.892 103.546C148.969 103.236 149.008 102.91 149.008 102.568ZM155.406 96.3408L155.222 103.382H154.169L153.964 96.3408H155.406ZM154.688 104.318C154.812 104.318 154.928 104.343 155.037 104.394C155.146 104.439 155.24 104.503 155.317 104.585C155.399 104.667 155.463 104.765 155.509 104.879C155.559 104.988 155.584 105.104 155.584 105.228C155.584 105.351 155.559 105.467 155.509 105.576C155.463 105.686 155.399 105.781 155.317 105.863C155.24 105.941 155.146 106.002 155.037 106.048C154.928 106.098 154.812 106.123 154.688 106.123C154.561 106.123 154.442 106.098 154.333 106.048C154.224 106.002 154.128 105.941 154.046 105.863C153.964 105.781 153.898 105.686 153.848 105.576C153.802 105.467 153.779 105.351 153.779 105.228C153.779 105.104 153.802 104.988 153.848 104.879C153.898 104.765 153.964 104.667 154.046 104.585C154.128 104.503 154.224 104.439 154.333 104.394C154.442 104.343 154.561 104.318 154.688 104.318ZM163.104 96.3408L162.919 103.382H161.866L161.661 96.3408H163.104ZM162.386 104.318C162.509 104.318 162.625 104.343 162.734 104.394C162.844 104.439 162.937 104.503 163.015 104.585C163.097 104.667 163.16 104.765 163.206 104.879C163.256 104.988 163.281 105.104 163.281 105.228C163.281 105.351 163.256 105.467 163.206 105.576C163.16 105.686 163.097 105.781 163.015 105.863C162.937 105.941 162.844 106.002 162.734 106.048C162.625 106.098 162.509 106.123 162.386 106.123C162.258 106.123 162.14 106.098 162.03 106.048C161.921 106.002 161.825 105.941 161.743 105.863C161.661 105.781 161.595 105.686 161.545 105.576C161.499 105.467 161.477 105.351 161.477 105.228C161.477 105.104 161.499 104.988 161.545 104.879C161.595 104.765 161.661 104.667 161.743 104.585C161.825 104.503 161.921 104.439 162.03 104.394C162.14 104.343 162.258 104.318 162.386 104.318ZM169.522 96.3408L169.331 99.5469H168.21L168.012 96.3408H169.522ZM172.182 96.3408L171.99 99.5469H170.869L170.671 96.3408H172.182ZM175.654 107.401C175.887 107.41 176.112 107.39 176.331 107.34C176.55 107.29 176.741 107.215 176.905 107.114C177.074 107.019 177.208 106.898 177.309 106.752C177.409 106.606 177.459 106.44 177.459 106.253C177.459 106.062 177.425 105.907 177.356 105.788C177.293 105.67 177.22 105.56 177.138 105.46C177.056 105.36 176.98 105.253 176.912 105.139C176.848 105.025 176.816 104.872 176.816 104.681C176.816 104.585 176.835 104.485 176.871 104.38C176.908 104.275 176.962 104.179 177.035 104.093C177.113 104.006 177.208 103.936 177.322 103.881C177.441 103.826 177.58 103.799 177.739 103.799C177.899 103.799 178.051 103.833 178.197 103.901C178.348 103.965 178.478 104.065 178.587 104.202C178.701 104.339 178.79 104.51 178.854 104.715C178.922 104.92 178.956 105.161 178.956 105.439C178.956 105.818 178.885 106.18 178.744 106.526C178.607 106.877 178.4 107.187 178.122 107.456C177.849 107.725 177.505 107.939 177.09 108.099C176.68 108.258 176.201 108.338 175.654 108.338V107.401ZM177.794 99.0137C177.935 99.0137 178.07 99.0433 178.197 99.1025C178.325 99.1572 178.437 99.2324 178.532 99.3281C178.628 99.4238 178.703 99.5355 178.758 99.6631C178.817 99.7907 178.847 99.9251 178.847 100.066C178.847 100.212 178.817 100.349 178.758 100.477C178.703 100.6 178.628 100.709 178.532 100.805C178.437 100.9 178.325 100.976 178.197 101.03C178.07 101.085 177.935 101.112 177.794 101.112C177.648 101.112 177.511 101.085 177.384 101.03C177.261 100.976 177.151 100.9 177.056 100.805C176.96 100.709 176.885 100.6 176.83 100.477C176.775 100.349 176.748 100.212 176.748 100.066C176.748 99.9251 176.775 99.7907 176.83 99.6631C176.885 99.5355 176.96 99.4238 177.056 99.3281C177.151 99.2324 177.261 99.1572 177.384 99.1025C177.511 99.0433 177.648 99.0137 177.794 99.0137ZM36.96 112.102H37.4658C38.3454 112.102 38.9993 112.309 39.4277 112.724C39.8561 113.134 40.0703 113.758 40.0703 114.597V116.176C40.0703 116.399 40.0954 116.6 40.1455 116.777C40.1956 116.951 40.2822 117.099 40.4053 117.222C40.5329 117.34 40.7015 117.431 40.9111 117.495C41.1208 117.559 41.3828 117.591 41.6973 117.591H41.9912V118.541H41.6973C41.3646 118.541 41.0911 118.568 40.877 118.623C40.6673 118.678 40.5033 118.762 40.3848 118.876C40.2663 118.985 40.1842 119.127 40.1387 119.3C40.0931 119.473 40.0703 119.678 40.0703 119.915V122.308C40.0703 122.69 40.0247 123.035 39.9336 123.34C39.8424 123.65 39.6943 123.912 39.4893 124.126C39.2842 124.345 39.0153 124.511 38.6826 124.625C38.3499 124.743 37.9443 124.803 37.4658 124.803H36.96V123.846H37.3701C38.4229 123.846 38.9492 123.333 38.9492 122.308V119.942C38.9492 118.83 39.43 118.206 40.3916 118.069C39.4209 117.965 38.9355 117.338 38.9355 116.189V114.624C38.9355 113.58 38.4137 113.059 37.3701 113.059H36.96V112.102ZM21.5654 128.102H22.0713C22.9508 128.102 23.6048 128.309 24.0332 128.724C24.4616 129.134 24.6758 129.758 24.6758 130.597V132.176C24.6758 132.399 24.7008 132.6 24.751 132.777C24.8011 132.951 24.8877 133.099 25.0107 133.222C25.1383 133.34 25.307 133.431 25.5166 133.495C25.7262 133.559 25.9883 133.591 26.3027 133.591H26.5967V134.541H26.3027C25.9701 134.541 25.6966 134.568 25.4824 134.623C25.2728 134.678 25.1087 134.762 24.9902 134.876C24.8717 134.985 24.7897 135.127 24.7441 135.3C24.6986 135.473 24.6758 135.678 24.6758 135.915V138.308C24.6758 138.69 24.6302 139.035 24.5391 139.34C24.4479 139.65 24.2998 139.912 24.0947 140.126C23.8896 140.345 23.6208 140.511 23.2881 140.625C22.9554 140.743 22.5498 140.803 22.0713 140.803H21.5654V139.846H21.9756C23.0283 139.846 23.5547 139.333 23.5547 138.308V135.942C23.5547 134.83 24.0355 134.206 24.9971 134.069C24.0264 133.965 23.541 133.338 23.541 132.189V130.624C23.541 129.58 23.0192 129.059 21.9756 129.059H21.5654V128.102ZM23.4316 161.318H21.4014V160.341H24.6348V169.009H26.6787V170H21.1758V169.009H23.4316V161.318ZM34.5879 166.206C34.5879 166.375 34.5856 166.516 34.5811 166.63C34.5765 166.744 34.5697 166.851 34.5605 166.951H29.7412C29.7412 167.653 29.9372 168.193 30.3291 168.571C30.721 168.945 31.2861 169.132 32.0244 169.132C32.2249 169.132 32.4255 169.125 32.626 169.111C32.8265 169.093 33.0202 169.07 33.207 169.043C33.3939 169.016 33.5716 168.986 33.7402 168.954C33.9134 168.918 34.0729 168.879 34.2188 168.838V169.815C33.8952 169.907 33.5283 169.979 33.1182 170.034C32.7126 170.093 32.291 170.123 31.8535 170.123C31.2656 170.123 30.7598 170.043 30.3359 169.884C29.9121 169.724 29.5635 169.494 29.29 169.193C29.0212 168.888 28.8206 168.517 28.6885 168.079C28.5609 167.637 28.4971 167.138 28.4971 166.582C28.4971 166.099 28.5654 165.643 28.7021 165.215C28.8434 164.782 29.0462 164.404 29.3105 164.08C29.5794 163.752 29.9076 163.492 30.2949 163.301C30.6823 163.109 31.1221 163.014 31.6143 163.014C32.0928 163.014 32.5166 163.089 32.8857 163.239C33.2549 163.39 33.5648 163.604 33.8154 163.882C34.0706 164.155 34.262 164.49 34.3896 164.887C34.5218 165.279 34.5879 165.718 34.5879 166.206ZM33.3506 166.035C33.3643 165.73 33.3346 165.452 33.2617 165.201C33.1888 164.946 33.0749 164.727 32.9199 164.545C32.7695 164.363 32.5804 164.221 32.3525 164.121C32.1247 164.016 31.8604 163.964 31.5596 163.964C31.2998 163.964 31.0628 164.014 30.8486 164.114C30.6344 164.215 30.4499 164.356 30.2949 164.538C30.14 164.72 30.0146 164.939 29.9189 165.194C29.8232 165.45 29.764 165.73 29.7412 166.035H33.3506ZM42.0186 169.904C41.7497 169.973 41.4717 170.021 41.1846 170.048C40.8975 170.08 40.6058 170.096 40.3096 170.096C39.4482 170.096 38.8057 169.902 38.3818 169.515C37.958 169.123 37.7461 168.523 37.7461 167.717V164.135H35.8252V163.137H37.7461V161.25L38.9355 160.942V163.137H42.0186V164.135H38.9355V167.621C38.9355 168.113 39.0654 168.482 39.3252 168.729C39.5895 168.97 39.9769 169.091 40.4873 169.091C40.7061 169.091 40.9453 169.075 41.2051 169.043C41.4648 169.007 41.736 168.952 42.0186 168.879V169.904ZM56.7773 170V165.071C56.7773 164.857 56.7682 164.682 56.75 164.545C56.7363 164.408 56.7113 164.301 56.6748 164.224C56.6429 164.142 56.5996 164.085 56.5449 164.053C56.4948 164.021 56.431 164.005 56.3535 164.005C56.2624 164.005 56.1781 164.032 56.1006 164.087C56.0231 164.142 55.9388 164.23 55.8477 164.354C55.7611 164.477 55.6631 164.641 55.5537 164.846C55.4489 165.046 55.3236 165.295 55.1777 165.591V170H54.0908V165.201C54.0908 164.951 54.0817 164.748 54.0635 164.593C54.0498 164.438 54.0247 164.317 53.9883 164.23C53.9564 164.144 53.9131 164.085 53.8584 164.053C53.8037 164.021 53.7376 164.005 53.6602 164.005C53.5781 164.005 53.5007 164.028 53.4277 164.073C53.3548 164.119 53.2728 164.201 53.1816 164.319C53.0951 164.438 52.9971 164.6 52.8877 164.805C52.7783 165.01 52.6484 165.272 52.498 165.591V170H51.4043V163.137H52.3135L52.3682 164.442C52.4867 164.183 52.6006 163.962 52.71 163.779C52.8239 163.597 52.9401 163.451 53.0586 163.342C53.1771 163.228 53.3024 163.146 53.4346 163.096C53.5713 163.041 53.7217 163.014 53.8857 163.014C54.2549 163.014 54.5352 163.134 54.7266 163.376C54.918 163.618 55.0137 163.991 55.0137 164.497C55.123 164.26 55.2301 164.05 55.335 163.868C55.4398 163.681 55.5514 163.526 55.6699 163.403C55.793 163.276 55.9274 163.18 56.0732 163.116C56.2191 163.048 56.3877 163.014 56.5791 163.014C57.4404 163.014 57.8711 163.677 57.8711 165.003V170H56.7773ZM65.6846 163.137L63.3467 169.275C63.1051 169.9 62.8545 170.438 62.5947 170.889C62.3395 171.34 62.0592 171.709 61.7539 171.996C61.4486 172.288 61.1136 172.502 60.749 172.639C60.3844 172.775 59.9766 172.844 59.5254 172.844C59.4069 172.844 59.2998 172.841 59.2041 172.837C59.1084 172.832 59.0036 172.826 58.8896 172.816V171.736C58.9899 171.75 59.0993 171.761 59.2178 171.771C59.3363 171.784 59.4616 171.791 59.5938 171.791C59.8125 171.791 60.0153 171.759 60.2021 171.695C60.3936 171.632 60.5736 171.527 60.7422 171.381C60.9108 171.24 61.0726 171.055 61.2275 170.827C61.3825 170.599 61.5329 170.324 61.6787 170L58.9375 163.137H60.291L62.0273 167.676L62.376 168.742L62.7725 167.648L64.3789 163.137H65.6846ZM72.9854 169.665C72.2699 169.961 71.5202 170.109 70.7363 170.109C69.474 170.109 68.5033 169.733 67.8242 168.981C67.1497 168.225 66.8125 167.108 66.8125 165.632C66.8125 164.916 66.9059 164.269 67.0928 163.69C67.2796 163.112 67.5462 162.622 67.8926 162.221C68.2389 161.815 68.6582 161.503 69.1504 161.284C69.6426 161.065 70.194 160.956 70.8047 160.956C71.2194 160.956 71.6045 160.993 71.96 161.065C72.3154 161.134 72.6572 161.241 72.9854 161.387V162.583C72.6618 162.405 72.3268 162.271 71.9805 162.18C71.6341 162.084 71.2559 162.036 70.8457 162.036C70.4264 162.036 70.0459 162.116 69.7041 162.275C69.3669 162.43 69.0798 162.658 68.8428 162.959C68.6058 163.255 68.4235 163.62 68.2959 164.053C68.1683 164.481 68.1045 164.971 68.1045 165.522C68.1045 166.68 68.3392 167.553 68.8086 168.141C69.278 168.729 69.9661 169.022 70.873 169.022C71.2559 169.022 71.6227 168.979 71.9736 168.893C72.3245 168.801 72.6618 168.676 72.9854 168.517V169.665ZM79.3838 170L79.3564 169.077C78.9827 169.446 78.6022 169.713 78.2148 169.877C77.832 170.041 77.4287 170.123 77.0049 170.123C76.613 170.123 76.278 170.073 76 169.973C75.722 169.872 75.4919 169.736 75.3096 169.562C75.1318 169.385 74.9997 169.177 74.9131 168.94C74.8311 168.703 74.79 168.446 74.79 168.168C74.79 167.48 75.0452 166.942 75.5557 166.555C76.0706 166.163 76.8294 165.967 77.832 165.967H79.2539V165.365C79.2539 164.96 79.124 164.636 78.8643 164.395C78.6045 164.148 78.208 164.025 77.6748 164.025C77.2874 164.025 76.9046 164.069 76.5264 164.155C76.1527 164.242 75.7653 164.365 75.3643 164.524V163.451C75.5146 163.396 75.681 163.344 75.8633 163.294C76.0501 163.239 76.2461 163.191 76.4512 163.15C76.6562 163.109 76.8704 163.077 77.0938 163.055C77.3171 163.027 77.5426 163.014 77.7705 163.014C78.1852 163.014 78.5589 163.059 78.8916 163.15C79.2243 163.242 79.5046 163.381 79.7324 163.567C79.9648 163.754 80.1426 163.989 80.2656 164.271C80.3887 164.554 80.4502 164.887 80.4502 165.27V170H79.3838ZM79.2539 166.876H77.7432C77.4469 166.876 77.1917 166.906 76.9775 166.965C76.7633 167.024 76.5879 167.108 76.4512 167.218C76.3145 167.327 76.2119 167.459 76.1436 167.614C76.0798 167.765 76.0479 167.936 76.0479 168.127C76.0479 168.259 76.0684 168.387 76.1094 168.51C76.1504 168.628 76.2165 168.735 76.3076 168.831C76.3988 168.922 76.5173 168.995 76.6631 169.05C76.8089 169.104 76.9867 169.132 77.1963 169.132C77.4697 169.132 77.7819 169.05 78.1328 168.886C78.4883 168.717 78.862 168.453 79.2539 168.093V166.876ZM82.9521 163.137H84.0391L84.0732 164.401C84.4788 163.914 84.8776 163.561 85.2695 163.342C85.666 163.123 86.0648 163.014 86.4658 163.014C87.1768 163.014 87.7145 163.244 88.0791 163.704C88.4482 164.164 88.6191 164.848 88.5918 165.755H87.3887C87.4023 165.153 87.3135 164.718 87.1221 164.449C86.9352 164.176 86.6595 164.039 86.2949 164.039C86.1354 164.039 85.9736 164.069 85.8096 164.128C85.6501 164.183 85.4837 164.274 85.3105 164.401C85.1419 164.524 84.9619 164.684 84.7705 164.88C84.5791 165.076 84.374 165.313 84.1553 165.591V170H82.9521V163.137ZM103.761 165.584H97.8818V164.579H103.761V165.584ZM103.761 167.963H97.8818V166.958H103.761V167.963ZM113.461 163.137H114.521L114.568 164.244C114.769 164.007 114.963 163.811 115.149 163.656C115.336 163.497 115.519 163.369 115.696 163.273C115.879 163.178 116.063 163.112 116.25 163.075C116.437 163.034 116.631 163.014 116.831 163.014C117.537 163.014 118.071 163.223 118.431 163.643C118.795 164.057 118.978 164.684 118.978 165.522V170H117.788V165.618C117.788 165.08 117.688 164.684 117.487 164.429C117.287 164.169 116.988 164.039 116.592 164.039C116.446 164.039 116.302 164.062 116.161 164.107C116.024 164.148 115.881 164.224 115.73 164.333C115.58 164.438 115.416 164.581 115.238 164.764C115.065 164.946 114.869 165.174 114.65 165.447V170H113.461V163.137ZM126.955 166.206C126.955 166.375 126.953 166.516 126.948 166.63C126.944 166.744 126.937 166.851 126.928 166.951H122.108C122.108 167.653 122.304 168.193 122.696 168.571C123.088 168.945 123.653 169.132 124.392 169.132C124.592 169.132 124.793 169.125 124.993 169.111C125.194 169.093 125.387 169.07 125.574 169.043C125.761 169.016 125.939 168.986 126.107 168.954C126.281 168.918 126.44 168.879 126.586 168.838V169.815C126.262 169.907 125.896 169.979 125.485 170.034C125.08 170.093 124.658 170.123 124.221 170.123C123.633 170.123 123.127 170.043 122.703 169.884C122.279 169.724 121.931 169.494 121.657 169.193C121.388 168.888 121.188 168.517 121.056 168.079C120.928 167.637 120.864 167.138 120.864 166.582C120.864 166.099 120.933 165.643 121.069 165.215C121.211 164.782 121.413 164.404 121.678 164.08C121.947 163.752 122.275 163.492 122.662 163.301C123.049 163.109 123.489 163.014 123.981 163.014C124.46 163.014 124.884 163.089 125.253 163.239C125.622 163.39 125.932 163.604 126.183 163.882C126.438 164.155 126.629 164.49 126.757 164.887C126.889 165.279 126.955 165.718 126.955 166.206ZM125.718 166.035C125.731 165.73 125.702 165.452 125.629 165.201C125.556 164.946 125.442 164.727 125.287 164.545C125.137 164.363 124.948 164.221 124.72 164.121C124.492 164.016 124.228 163.964 123.927 163.964C123.667 163.964 123.43 164.014 123.216 164.114C123.002 164.215 122.817 164.356 122.662 164.538C122.507 164.72 122.382 164.939 122.286 165.194C122.19 165.45 122.131 165.73 122.108 166.035H125.718ZM135.213 163.137L134.215 170H132.772L131.781 167.129L131.583 166.432L131.357 167.17L130.407 170H129.006L128.015 163.137H129.177L129.751 167.799L129.874 168.838L130.168 167.929L131.166 164.846H132.021L133.094 167.888L133.401 168.797L133.504 167.833L134.037 163.137H135.213ZM149.958 169.665C149.243 169.961 148.493 170.109 147.709 170.109C146.447 170.109 145.476 169.733 144.797 168.981C144.122 168.225 143.785 167.108 143.785 165.632C143.785 164.916 143.879 164.269 144.065 163.69C144.252 163.112 144.519 162.622 144.865 162.221C145.212 161.815 145.631 161.503 146.123 161.284C146.615 161.065 147.167 160.956 147.777 160.956C148.192 160.956 148.577 160.993 148.933 161.065C149.288 161.134 149.63 161.241 149.958 161.387V162.583C149.634 162.405 149.299 162.271 148.953 162.18C148.607 162.084 148.229 162.036 147.818 162.036C147.399 162.036 147.019 162.116 146.677 162.275C146.34 162.43 146.052 162.658 145.815 162.959C145.578 163.255 145.396 163.62 145.269 164.053C145.141 164.481 145.077 164.971 145.077 165.522C145.077 166.68 145.312 167.553 145.781 168.141C146.251 168.729 146.939 169.022 147.846 169.022C148.229 169.022 148.595 168.979 148.946 168.893C149.297 168.801 149.634 168.676 149.958 168.517V169.665ZM156.356 170L156.329 169.077C155.955 169.446 155.575 169.713 155.188 169.877C154.805 170.041 154.401 170.123 153.978 170.123C153.586 170.123 153.251 170.073 152.973 169.973C152.695 169.872 152.465 169.736 152.282 169.562C152.104 169.385 151.972 169.177 151.886 168.94C151.804 168.703 151.763 168.446 151.763 168.168C151.763 167.48 152.018 166.942 152.528 166.555C153.043 166.163 153.802 165.967 154.805 165.967H156.227V165.365C156.227 164.96 156.097 164.636 155.837 164.395C155.577 164.148 155.181 164.025 154.647 164.025C154.26 164.025 153.877 164.069 153.499 164.155C153.125 164.242 152.738 164.365 152.337 164.524V163.451C152.487 163.396 152.654 163.344 152.836 163.294C153.023 163.239 153.219 163.191 153.424 163.15C153.629 163.109 153.843 163.077 154.066 163.055C154.29 163.027 154.515 163.014 154.743 163.014C155.158 163.014 155.532 163.059 155.864 163.15C156.197 163.242 156.477 163.381 156.705 163.567C156.938 163.754 157.115 163.989 157.238 164.271C157.361 164.554 157.423 164.887 157.423 165.27V170H156.356ZM156.227 166.876H154.716C154.42 166.876 154.164 166.906 153.95 166.965C153.736 167.024 153.561 167.108 153.424 167.218C153.287 167.327 153.185 167.459 153.116 167.614C153.052 167.765 153.021 167.936 153.021 168.127C153.021 168.259 153.041 168.387 153.082 168.51C153.123 168.628 153.189 168.735 153.28 168.831C153.371 168.922 153.49 168.995 153.636 169.05C153.782 169.104 153.959 169.132 154.169 169.132C154.442 169.132 154.755 169.05 155.105 168.886C155.461 168.717 155.835 168.453 156.227 168.093V166.876ZM159.925 163.137H161.012L161.046 164.401C161.451 163.914 161.85 163.561 162.242 163.342C162.639 163.123 163.037 163.014 163.438 163.014C164.149 163.014 164.687 163.244 165.052 163.704C165.421 164.164 165.592 164.848 165.564 165.755H164.361C164.375 165.153 164.286 164.718 164.095 164.449C163.908 164.176 163.632 164.039 163.268 164.039C163.108 164.039 162.946 164.069 162.782 164.128C162.623 164.183 162.456 164.274 162.283 164.401C162.115 164.524 161.935 164.684 161.743 164.88C161.552 165.076 161.347 165.313 161.128 165.591V170H159.925V163.137ZM171.45 172.871C169.349 170.925 168.299 168.774 168.299 166.418C168.299 165.867 168.354 165.317 168.463 164.771C168.577 164.219 168.757 163.668 169.003 163.116C169.254 162.565 169.582 162.013 169.987 161.462C170.397 160.91 170.894 160.364 171.478 159.821L172.168 160.525C170.4 162.271 169.516 164.205 169.516 166.329C169.516 167.386 169.739 168.403 170.186 169.378C170.632 170.353 171.293 171.274 172.168 172.14L171.45 172.871ZM177.22 160.341L177.028 163.547H175.907L175.709 160.341H177.22ZM179.879 160.341L179.688 163.547H178.566L178.368 160.341H179.879ZM188.082 162.104H184.288V165.003H187.884V166.021H184.288V170H183.044V161.065H188.082V162.104ZM196.408 166.514C196.408 167.047 196.333 167.537 196.183 167.983C196.032 168.425 195.816 168.806 195.533 169.125C195.251 169.439 194.907 169.686 194.501 169.863C194.095 170.036 193.635 170.123 193.12 170.123C192.628 170.123 192.186 170.048 191.794 169.897C191.407 169.743 191.076 169.517 190.803 169.221C190.534 168.924 190.326 168.558 190.181 168.12C190.039 167.683 189.969 167.179 189.969 166.609C189.969 166.076 190.044 165.591 190.194 165.153C190.345 164.711 190.561 164.333 190.844 164.019C191.126 163.7 191.47 163.453 191.876 163.28C192.282 163.103 192.742 163.014 193.257 163.014C193.749 163.014 194.189 163.091 194.576 163.246C194.968 163.396 195.299 163.62 195.567 163.916C195.841 164.208 196.048 164.572 196.189 165.01C196.335 165.447 196.408 165.949 196.408 166.514ZM195.191 166.568C195.191 166.145 195.144 165.775 195.048 165.461C194.957 165.142 194.825 164.878 194.651 164.668C194.478 164.454 194.266 164.294 194.016 164.189C193.77 164.08 193.494 164.025 193.188 164.025C192.833 164.025 192.528 164.096 192.272 164.237C192.022 164.374 191.814 164.559 191.65 164.791C191.491 165.023 191.372 165.295 191.295 165.604C191.222 165.91 191.186 166.231 191.186 166.568C191.186 166.992 191.231 167.364 191.322 167.683C191.418 168.002 191.552 168.268 191.726 168.482C191.899 168.692 192.108 168.852 192.354 168.961C192.601 169.066 192.879 169.118 193.188 169.118C193.544 169.118 193.847 169.05 194.098 168.913C194.353 168.772 194.56 168.585 194.72 168.353C194.884 168.12 195.002 167.851 195.075 167.546C195.153 167.236 195.191 166.91 195.191 166.568ZM198.411 163.137H199.498L199.532 164.401C199.938 163.914 200.337 163.561 200.729 163.342C201.125 163.123 201.524 163.014 201.925 163.014C202.636 163.014 203.174 163.244 203.538 163.704C203.907 164.164 204.078 164.848 204.051 165.755H202.848C202.861 165.153 202.772 164.718 202.581 164.449C202.394 164.176 202.118 164.039 201.754 164.039C201.594 164.039 201.433 164.069 201.269 164.128C201.109 164.183 200.943 164.274 200.77 164.401C200.601 164.524 200.421 164.684 200.229 164.88C200.038 165.076 199.833 165.313 199.614 165.591V170H198.411V163.137ZM205.479 166.712C205.479 166.129 205.559 165.611 205.719 165.16C205.878 164.704 206.104 164.322 206.396 164.012C206.692 163.697 207.045 163.46 207.455 163.301C207.87 163.137 208.33 163.055 208.836 163.055C209.055 163.055 209.269 163.068 209.479 163.096C209.693 163.123 209.902 163.166 210.107 163.226V160.341H211.304V170H210.237L210.196 168.701C209.864 169.184 209.504 169.542 209.116 169.774C208.729 170.007 208.31 170.123 207.858 170.123C207.466 170.123 207.12 170.041 206.819 169.877C206.523 169.713 206.275 169.483 206.074 169.187C205.878 168.886 205.73 168.526 205.63 168.106C205.53 167.687 205.479 167.222 205.479 166.712ZM206.696 166.637C206.696 167.466 206.817 168.086 207.059 168.496C207.305 168.902 207.651 169.104 208.098 169.104C208.398 169.104 208.715 168.97 209.048 168.701C209.385 168.432 209.738 168.034 210.107 167.505V164.319C209.911 164.228 209.695 164.16 209.458 164.114C209.221 164.064 208.986 164.039 208.754 164.039C208.107 164.039 207.601 164.249 207.236 164.668C206.876 165.087 206.696 165.743 206.696 166.637ZM215.706 160.341L215.515 163.547H214.394L214.195 160.341H215.706ZM218.365 160.341L218.174 163.547H217.053L216.854 160.341H218.365ZM222.624 159.821C224.725 161.767 225.775 163.932 225.775 166.315C225.775 166.808 225.725 167.318 225.625 167.847C225.525 168.375 225.354 168.918 225.112 169.474C224.871 170.025 224.545 170.586 224.135 171.155C223.729 171.725 223.216 172.297 222.597 172.871L221.906 172.167C222.795 171.287 223.458 170.369 223.896 169.412C224.333 168.455 224.552 167.452 224.552 166.404C224.552 164.235 223.67 162.285 221.906 160.553L222.624 159.821ZM229.535 171.401C229.768 171.41 229.993 171.39 230.212 171.34C230.431 171.29 230.622 171.215 230.786 171.114C230.955 171.019 231.089 170.898 231.189 170.752C231.29 170.606 231.34 170.44 231.34 170.253C231.34 170.062 231.306 169.907 231.237 169.788C231.174 169.67 231.101 169.56 231.019 169.46C230.937 169.36 230.861 169.253 230.793 169.139C230.729 169.025 230.697 168.872 230.697 168.681C230.697 168.585 230.715 168.485 230.752 168.38C230.788 168.275 230.843 168.179 230.916 168.093C230.993 168.006 231.089 167.936 231.203 167.881C231.322 167.826 231.461 167.799 231.62 167.799C231.78 167.799 231.932 167.833 232.078 167.901C232.229 167.965 232.358 168.065 232.468 168.202C232.582 168.339 232.671 168.51 232.734 168.715C232.803 168.92 232.837 169.161 232.837 169.439C232.837 169.818 232.766 170.18 232.625 170.526C232.488 170.877 232.281 171.187 232.003 171.456C231.729 171.725 231.385 171.939 230.971 172.099C230.561 172.258 230.082 172.338 229.535 172.338V171.401ZM231.675 163.014C231.816 163.014 231.951 163.043 232.078 163.103C232.206 163.157 232.317 163.232 232.413 163.328C232.509 163.424 232.584 163.535 232.639 163.663C232.698 163.791 232.728 163.925 232.728 164.066C232.728 164.212 232.698 164.349 232.639 164.477C232.584 164.6 232.509 164.709 232.413 164.805C232.317 164.9 232.206 164.976 232.078 165.03C231.951 165.085 231.816 165.112 231.675 165.112C231.529 165.112 231.392 165.085 231.265 165.03C231.142 164.976 231.032 164.9 230.937 164.805C230.841 164.709 230.766 164.6 230.711 164.477C230.656 164.349 230.629 164.212 230.629 164.066C230.629 163.925 230.656 163.791 230.711 163.663C230.766 163.535 230.841 163.424 230.937 163.328C231.032 163.232 231.142 163.157 231.265 163.103C231.392 163.043 231.529 163.014 231.675 163.014Z" fill="white"/>
</svg>
