<svg width="18" height="20" viewBox="0 0 18 20" fill="none" xmlns="http://www.w3.org/2000/svg">
<path d="M16.1532 7.63422C15.2358 7.00677 14.6605 6.1678 14.2005 4.87593C14.0295 4.39569 13.6029 4.08518 13.1137 4.08518C12.5878 4.08518 12.1069 4.4243 11.7945 5.01543C11.6191 5.34201 11.5113 5.7006 11.4775 6.06976C11.1535 5.47895 10.4952 5.35327 10.1831 5.7734C10.1831 5.7734 7.61605 3.82192 6.74044 3.20057C5.57682 2.37575 4.03551 3.28929 4.07408 4.23272C2.60477 3.43619 0.991771 4.8425 1.48872 6.31631C0.920411 6.21216 -0.533151 7.71876 0.994985 8.87596C-0.0635238 8.9846 -0.474648 10.642 0.755511 11.3964C0.755511 11.3964 0.761297 11.6256 0.77769 11.7381C-0.0329869 11.9843 -0.312642 13.5169 0.471356 14.0007C0.471356 14.0007 6.12552 17.6111 8.07186 18.6973C9.1294 19.2875 10.9504 19.5192 12.5727 18.9924C14.1481 18.8291 15.4846 17.994 16.5586 16.5057C19.5142 12.4099 17.1728 8.33175 16.1532 7.63422ZM15.807 16.1065C14.5762 17.8358 12.8086 18.0152 11.456 18.0152C9.24801 18.0152 7.89924 16.9567 7.89924 16.9567L1.83941 12.4321C0.692187 11.64 1.38297 10.3781 2.18786 10.4012L7.00853 13.686L7.60191 13.723C7.60191 13.723 3.29619 10.632 1.9021 9.54391C1.0882 8.90874 1.35564 7.69562 2.40933 7.45454L8.4383 11.7824L9.03104 11.8194L2.59095 6.82483C1.23028 5.83029 2.59577 3.955 3.91497 4.91C5.43635 6.01126 10.0134 9.5018 10.0134 9.5018L10.6067 9.53909L4.58132 4.54806C4.52924 3.77788 5.55368 3.10832 6.37271 3.72099C8.01978 4.95307 12.9636 8.64548 12.9636 8.64548C12.8363 8.289 12.7726 8.02092 12.7726 8.02092C12.7726 8.02092 11.8334 6.45935 12.3422 5.32241C12.789 4.3253 13.6929 4.48731 13.8752 5.02315C14.3596 6.44971 14.8614 7.29639 15.8652 8.00999C17.1471 8.92128 18.458 12.3832 15.807 16.1065Z" fill="black"/>
<path d="M13.5129 0.285762L10.7453 0L11.6897 3.94088L13.5129 0.285762Z" fill="black"/>
<path d="M15.8029 1.04919L14.3965 4.32565L17.6769 3.44683L15.8029 1.04919Z" fill="black"/>
<path d="M8.07092 0.49794L6.07477 2.1479L8.94975 4.02127L8.07092 0.49794Z" fill="black"/>
</svg>
