<svg width="126" height="21" viewBox="0 0 126 21" fill="none" xmlns="http://www.w3.org/2000/svg">
<rect x="0.233333" y="0.233333" width="55.5333" height="20.0667" stroke="#00094A" stroke-width="0.466667"/>
<rect x="56" width="70" height="20.5333" fill="#00094A"/>
<path fill-rule="evenodd" clip-rule="evenodd" d="M62.5382 8.70101L63.3619 9.52533C63.6007 9.76437 63.6007 10.1556 63.3619 10.3947L62.5382 11.219C62.2994 11.458 61.9084 11.458 61.6696 11.219L60.8459 10.3947C60.607 10.1556 60.607 9.76437 60.8459 9.52533L61.6696 8.70101C61.9084 8.46197 62.2988 8.46197 62.5382 8.70101Z" fill="#06A39C"/>
<path fill-rule="evenodd" clip-rule="evenodd" d="M62.5382 13.4927L63.3619 14.317C63.6007 14.556 63.6007 14.9473 63.3619 15.1863L62.5382 16.0106C62.2994 16.2497 61.9084 16.2497 61.6696 16.0106L60.8459 15.1863C60.607 14.9473 60.607 14.556 60.8459 14.317L61.6696 13.4927C61.9084 13.2531 62.2988 13.2531 62.5382 13.4927Z" fill="#06A39C"/>
<path fill-rule="evenodd" clip-rule="evenodd" d="M67.3244 3.91097L68.148 4.73529C68.3869 4.97433 68.3869 5.36559 68.148 5.60463L67.3244 6.42895C67.0855 6.66799 66.6945 6.66799 66.4557 6.42895L65.632 5.60463C65.3932 5.36559 65.3932 4.97433 65.632 4.73529L66.4557 3.91097C66.6951 3.67193 67.0855 3.67193 67.3244 3.91097Z" fill="#30D2A3"/>
<path fill-rule="evenodd" clip-rule="evenodd" d="M67.3244 8.70101L68.148 9.52533C68.3869 9.76437 68.3869 10.1556 68.148 10.3947L67.3244 11.219C67.0855 11.458 66.6945 11.458 66.4557 11.219L65.632 10.3947C65.3932 10.1556 65.3932 9.76437 65.632 9.52533L66.4557 8.70101C66.6951 8.46197 67.0855 8.46197 67.3244 8.70101Z" fill="#30D2A3"/>
<path fill-rule="evenodd" clip-rule="evenodd" d="M67.3244 13.4927L68.148 14.317C68.3869 14.556 68.3869 14.9473 68.148 15.1863L67.3244 16.0106C67.0855 16.2497 66.6945 16.2497 66.4557 16.0106L65.632 15.1863C65.3932 14.9473 65.3932 14.556 65.632 14.317L66.4557 13.4927C66.6951 13.2531 67.0855 13.2531 67.3244 13.4927Z" fill="#06A39C"/>
<path fill-rule="evenodd" clip-rule="evenodd" d="M72.1112 3.91097L72.9349 4.73529C73.1737 4.97433 73.1737 5.36559 72.9349 5.60463L72.1112 6.42895C71.8724 6.66799 71.4814 6.66799 71.2426 6.42895L70.4189 5.60463C70.18 5.36559 70.18 4.97433 70.4189 4.73529L71.2426 3.91097C71.4814 3.67193 71.8724 3.67193 72.1112 3.91097Z" fill="#30D2A3"/>
<path fill-rule="evenodd" clip-rule="evenodd" d="M72.1112 8.70101L72.9349 9.52533C73.1737 9.76437 73.1737 10.1556 72.9349 10.3947L72.1112 11.219C71.8724 11.458 71.4814 11.458 71.2426 11.219L70.4189 10.3947C70.18 10.1556 70.18 9.76437 70.4189 9.52533L71.2426 8.70101C71.4814 8.46197 71.8724 8.46197 72.1112 8.70101Z" fill="#30D2A3"/>
<path fill-rule="evenodd" clip-rule="evenodd" d="M72.1112 13.4927L72.9349 14.317C73.1737 14.556 73.1737 14.9473 72.9349 15.1863L72.1112 16.0106C71.8724 16.2497 71.4814 16.2497 71.2426 16.0106L70.4189 15.1863C70.18 14.9473 70.18 14.556 70.4189 14.317L71.2426 13.4927C71.4814 13.2531 71.8724 13.2531 72.1112 13.4927Z" fill="#06A39C"/>
<path fill-rule="evenodd" clip-rule="evenodd" d="M62.5382 3.91195L63.3619 4.73626C63.6007 4.97531 63.6007 5.36656 63.3619 5.60561L62.5382 6.42992C62.2994 6.66896 61.9084 6.66896 61.6696 6.42992L60.8459 5.60561C60.607 5.36656 60.607 4.97531 60.8459 4.73626L61.6696 3.91195C61.9084 3.67291 62.2988 3.67291 62.5382 3.91195Z" fill="#30D2A3"/>
<path fill-rule="evenodd" clip-rule="evenodd" d="M80.2889 10.9693L80.5706 11.6795C80.6044 11.7695 80.6719 11.8033 80.7618 11.7695L81.5614 11.5101C81.6851 11.4764 81.6964 11.3751 81.6626 11.2845L81.5164 10.8112C81.3927 10.4055 81.3702 9.98852 81.3702 9.53778V7.57667C81.3702 6.05506 80.1652 5.45799 78.8365 5.45799C77.7103 5.45799 76.945 5.76243 76.1904 6.31447C76.1117 6.37075 76.0892 6.4833 76.1679 6.57388L76.607 7.19345C76.6633 7.27224 76.787 7.2835 76.8775 7.22722C77.5084 6.83275 78.015 6.68643 78.8371 6.68643C79.5129 6.68643 80.0645 6.90082 80.0645 7.43035V7.56542L78.0825 7.82482C76.6976 8.00491 75.8755 8.72632 75.8755 9.86471C75.8755 11.0144 76.7763 11.7808 78.0712 11.7808C78.972 11.7808 79.6816 11.4989 80.2332 10.9693H80.2889ZM80.0635 9.69588C79.6693 10.2254 79.0615 10.5524 78.2057 10.5524C77.4961 10.5524 77.1812 10.2592 77.1812 9.79718C77.1812 9.40271 77.4629 9.09828 78.0819 8.99698L80.064 8.67005V9.69588H80.0635ZM82.9688 3.75684C82.8676 3.75684 82.8114 3.81311 82.8114 3.91441V11.5326C82.8114 11.6339 82.8676 11.6902 82.9688 11.6902H83.7347C83.8246 11.6902 83.8809 11.6452 83.9034 11.5552L83.9933 11.1494L84.0721 11.1382C84.5337 11.5889 85.1983 11.7808 85.8849 11.7808C87.6865 11.7808 89.0494 10.5073 89.0494 8.6143C89.0494 6.72127 87.7207 5.45907 85.8849 5.45907C85.209 5.45907 84.6462 5.6279 84.117 6.06739V3.91495C84.117 3.81365 84.0608 3.75737 83.9596 3.75737L82.9688 3.75684ZM84.1176 7.43089C84.6017 6.93512 85.0858 6.69822 85.8854 6.69822C86.9554 6.69822 87.7545 7.44214 87.7545 8.6143C87.7545 9.79772 86.9549 10.5416 85.8854 10.5416C85.1308 10.5416 84.6017 10.3047 84.1176 9.77521V7.43089ZM90.1082 5.54857C90.007 5.54857 89.9508 5.60485 89.9508 5.70615V9.08703C89.9508 10.9575 90.9753 11.7803 92.5069 11.7803C93.1828 11.7803 93.8019 11.5889 94.331 11.1039H94.3985L94.4997 11.5546C94.5222 11.6447 94.5784 11.6897 94.6797 11.6897H95.4792C95.5805 11.6897 95.6367 11.6334 95.6367 11.5321V5.70668C95.6367 5.60539 95.5805 5.54911 95.4792 5.54911H94.4885C94.3873 5.54911 94.331 5.60539 94.331 5.70668V9.7527C93.9256 10.2822 93.2722 10.5416 92.6419 10.5416C91.6961 10.5416 91.257 10.0796 91.257 9.00877V5.70668C91.257 5.60539 91.2007 5.54911 91.0995 5.54911H90.1082V5.54857ZM97.4613 5.57109L96.7292 5.63862C96.6392 5.64987 96.5942 5.70615 96.5942 5.78494V6.60764C96.5942 6.70894 96.6505 6.76522 96.7517 6.76522H97.4501V9.71786C97.4501 10.9238 98.0354 11.7803 99.3871 11.7803C99.9612 11.7803 100.389 11.6565 100.806 11.3858C100.907 11.3295 100.93 11.262 100.885 11.1601L100.58 10.4387C100.547 10.3599 100.479 10.3149 100.355 10.3712C100.118 10.495 99.8482 10.5513 99.544 10.5513C99.0599 10.5513 98.7557 10.2581 98.7557 9.68356V6.76468H100.422C100.524 6.76468 100.58 6.7084 100.58 6.60711V5.70561C100.58 5.60432 100.524 5.54804 100.422 5.54804H98.7557V4.35337C98.7557 4.25207 98.677 4.19579 98.5983 4.19579H97.743C97.653 4.19579 97.5968 4.25207 97.5855 4.35337L97.4613 5.57109ZM106.876 9.92153C106.819 9.85399 106.752 9.85399 106.696 9.91027C106.11 10.3948 105.502 10.5529 104.736 10.5529C103.745 10.5529 103.047 10.0121 102.833 9.23442H107.652C107.742 9.23442 107.787 9.17814 107.787 9.07684V8.6261C107.787 6.78934 106.503 5.45907 104.679 5.45907C102.844 5.45907 101.47 6.7888 101.47 8.6261C101.47 10.4403 102.81 11.7813 104.736 11.7813C105.636 11.7813 106.593 11.5219 107.404 10.8348C107.461 10.7785 107.472 10.711 107.416 10.6547L106.876 9.92153ZM104.679 6.68697C105.569 6.68697 106.369 7.22776 106.459 8.0167H102.821C103.002 7.23901 103.767 6.68697 104.679 6.68697ZM111.864 5.45853C110.062 5.45853 108.688 6.78827 108.688 8.60251C108.688 10.4168 110.062 11.7808 111.864 11.7808C112.99 11.7808 113.97 11.285 114.544 10.3385C114.589 10.2822 114.577 10.2147 114.521 10.1584L113.812 9.59512C113.744 9.53884 113.688 9.53884 113.632 9.59512C113.17 10.2715 112.63 10.5416 111.864 10.5416C110.749 10.5416 109.995 9.71893 109.995 8.60305C109.995 7.48717 110.738 6.69822 111.864 6.69822C112.63 6.69822 113.136 6.98014 113.598 7.61097C113.643 7.66725 113.733 7.71227 113.812 7.63348L114.521 7.09269C114.577 7.04767 114.589 6.9914 114.544 6.91261C114.004 5.98807 112.923 5.45853 111.864 5.45853ZM115.805 3.75684C115.704 3.75684 115.648 3.81311 115.648 3.91441V11.5326C115.648 11.6339 115.704 11.6902 115.805 11.6902H116.796C116.897 11.6902 116.954 11.6339 116.954 11.5326V7.40838C117.404 6.91261 117.933 6.69822 118.598 6.69822C119.499 6.69822 120.028 7.2165 120.028 8.29862V11.5332C120.028 11.6345 120.084 11.6908 120.185 11.6908H121.176C121.277 11.6908 121.333 11.6345 121.333 11.5332V8.2536C121.333 6.40558 120.185 5.45853 118.597 5.45853C117.966 5.45853 117.415 5.63862 116.953 6.07811V3.91441C116.953 3.81311 116.897 3.75684 116.796 3.75684H115.805Z" fill="white"/>
<path fill-rule="evenodd" clip-rule="evenodd" d="M76.8236 15.9185C76.9955 15.9185 77.1353 15.8563 77.244 15.7325C77.3576 15.6087 77.4143 15.4468 77.4143 15.2474C77.4143 15.0529 77.3576 14.8921 77.244 14.7662C77.1326 14.6397 76.9929 14.5764 76.8236 14.5764C76.6571 14.5764 76.5168 14.6397 76.4032 14.7662C76.2897 14.8926 76.2329 15.0529 76.2329 15.2474C76.2329 15.4447 76.2897 15.6049 76.4032 15.7287C76.5168 15.8558 76.6571 15.9185 76.8236 15.9185ZM76.7669 16.2374C76.5243 16.2374 76.3159 16.1414 76.1419 15.949C75.97 15.7545 75.8843 15.5208 75.8843 15.2474C75.8843 14.9746 75.97 14.7404 76.1419 14.5459C76.3159 14.354 76.5243 14.2575 76.7669 14.2575C76.9034 14.2575 77.0277 14.2865 77.1401 14.3449C77.2526 14.4028 77.3388 14.4799 77.3999 14.5759H77.4149L77.3999 14.3181V13.4611H77.7485V16.1757H77.4154V15.9179H77.4004C77.3399 16.0139 77.2531 16.0911 77.1407 16.1489C77.0277 16.2079 76.9034 16.2374 76.7669 16.2374ZM78.6231 13.6781C78.6231 13.7462 78.599 13.8046 78.5513 13.8523C78.5031 13.9006 78.4453 13.9241 78.3773 13.9241C78.3092 13.9241 78.2509 13.9 78.2032 13.8523C78.155 13.8041 78.1314 13.7462 78.1314 13.6781C78.1314 13.6101 78.1555 13.5517 78.2032 13.5039C78.2514 13.4557 78.3092 13.4321 78.3773 13.4321C78.4453 13.4321 78.5036 13.4562 78.5513 13.5039C78.599 13.5517 78.6231 13.6101 78.6231 13.6781ZM78.5513 14.3186V16.1763H78.2027V14.3186H78.5513ZM79.82 15.9185C79.9919 15.9185 80.1317 15.8563 80.2404 15.7325C80.354 15.6087 80.4107 15.4468 80.4107 15.2474C80.4107 15.0529 80.354 14.8921 80.2404 14.7662C80.129 14.6397 79.9893 14.5764 79.82 14.5764C79.6535 14.5764 79.5132 14.6397 79.3996 14.7662C79.2861 14.8926 79.2293 15.0529 79.2293 15.2474C79.2293 15.4447 79.2861 15.6049 79.3996 15.7287C79.5132 15.8558 79.6535 15.9185 79.82 15.9185ZM79.8088 17.0563C79.7054 17.0563 79.6079 17.0429 79.5169 17.0167C79.4259 16.9899 79.3434 16.9529 79.2689 16.9047C79.1945 16.8564 79.1308 16.7996 79.0778 16.7342C79.0247 16.6683 78.9846 16.5954 78.9567 16.5145L79.2861 16.3778C79.3241 16.4866 79.3894 16.5734 79.4832 16.6394C79.5763 16.7053 79.6851 16.738 79.8088 16.738C79.9984 16.738 80.1462 16.6812 80.2522 16.5675C80.3582 16.4539 80.4113 16.2969 80.4113 16.0975V15.9196H80.3963C80.3304 16.0182 80.2415 16.0959 80.129 16.1527C80.0166 16.2095 79.895 16.2379 79.7633 16.2379C79.5206 16.2379 79.3123 16.143 79.1383 15.9533C78.9664 15.7588 78.8807 15.5235 78.8807 15.248C78.8807 14.9725 78.9664 14.7388 79.1383 14.5464C79.3123 14.3545 79.5206 14.2581 79.7633 14.2581C79.8945 14.2581 80.0166 14.2865 80.129 14.3433C80.2415 14.4001 80.3304 14.4778 80.3963 14.5764H80.4113V14.3186H80.7444V16.097C80.7444 16.395 80.6598 16.6292 80.4905 16.7985C80.3192 16.97 80.0915 17.0563 79.8088 17.0563ZM81.6195 13.6781C81.6195 13.7462 81.5954 13.8046 81.5477 13.8523C81.4995 13.9006 81.4417 13.9241 81.3736 13.9241C81.3056 13.9241 81.2473 13.9 81.1996 13.8523C81.1514 13.8041 81.1278 13.7462 81.1278 13.6781C81.1278 13.6101 81.1519 13.5517 81.1996 13.5039C81.2478 13.4557 81.3056 13.4321 81.3736 13.4321C81.4417 13.4321 81.5 13.4562 81.5477 13.5039C81.5954 13.5517 81.6195 13.6101 81.6195 13.6781ZM81.5477 14.3186V16.1763H81.1991V14.3186H81.5477ZM82.7184 16.2068C82.5668 16.2068 82.441 16.1602 82.3414 16.0664C82.2418 15.9731 82.1904 15.8429 82.1882 15.6757V14.637H81.8626V14.3186H82.1882V13.75H82.5369V14.3186H82.9915V14.637H82.5369V15.5621C82.5369 15.6859 82.561 15.77 82.6086 15.814C82.6568 15.8585 82.7109 15.8804 82.7714 15.8804C82.7993 15.8804 82.8266 15.8772 82.8528 15.8708C82.8796 15.8643 82.9042 15.8563 82.9267 15.8461L83.0365 16.157C82.9455 16.1902 82.8394 16.2068 82.7184 16.2068ZM83.5405 15.6076C83.5405 15.6987 83.579 15.7743 83.6562 15.8349C83.7333 15.8954 83.8232 15.926 83.9271 15.926C84.0739 15.926 84.2046 15.8719 84.3192 15.763C84.4343 15.6542 84.4916 15.5267 84.4916 15.3804C84.3829 15.2946 84.2313 15.2517 84.0369 15.2517C83.8955 15.2517 83.7772 15.286 83.6829 15.3541C83.5876 15.4222 83.5405 15.5069 83.5405 15.6076ZM83.9909 14.2581C84.2485 14.2581 84.452 14.3267 84.6009 14.4649C84.7497 14.6027 84.8242 14.7919 84.8242 15.0315V16.1763H84.4911V15.9185H84.4761C84.332 16.1307 84.1403 16.2368 83.9004 16.2368C83.6958 16.2368 83.5249 16.1763 83.3873 16.0546C83.2497 15.9335 83.1806 15.7818 83.1806 15.5996C83.1806 15.4077 83.2534 15.2544 83.3986 15.1408C83.5437 15.0272 83.7376 14.9704 83.9802 14.9704C84.1874 14.9704 84.3577 15.0084 84.4916 15.084V15.0041C84.4916 14.883 84.4434 14.7795 84.3475 14.6949C84.2517 14.6102 84.1392 14.5678 84.0101 14.5678C83.8157 14.5678 83.6615 14.6498 83.548 14.8144L83.2411 14.6209C83.4103 14.3797 83.6604 14.2581 83.9909 14.2581ZM85.567 13.4621V16.1768H85.2183V13.4621H85.567ZM87.6733 16.2374C87.398 16.2374 87.1693 16.1441 86.9878 15.9571C86.8084 15.7652 86.7189 15.5288 86.7189 15.248C86.7189 14.9623 86.8084 14.726 86.9878 14.5389C87.1699 14.3518 87.398 14.2586 87.6733 14.2586C87.8629 14.2586 88.0284 14.3058 88.1698 14.4006C88.3111 14.4955 88.4172 14.6263 88.4879 14.7929L88.1698 14.9259C88.0712 14.6933 87.8982 14.577 87.6508 14.577C87.4917 14.577 87.3541 14.6413 87.2379 14.7704C87.1244 14.8991 87.0676 15.0588 87.0676 15.248C87.0676 15.4377 87.1244 15.5969 87.2379 15.7255C87.3541 15.8542 87.4917 15.919 87.6508 15.919C87.9057 15.919 88.0851 15.8027 88.1885 15.5701L88.4991 15.703C88.4311 15.8697 88.324 16.0005 88.1789 16.0953C88.0337 16.1897 87.865 16.2374 87.6733 16.2374ZM88.6769 15.2474C88.6769 14.9618 88.7664 14.7254 88.9458 14.5384C89.1278 14.3513 89.356 14.2581 89.6313 14.2581C89.9065 14.2581 90.1336 14.3513 90.313 14.5384C90.4951 14.7254 90.5856 14.9618 90.5856 15.2474C90.5856 15.5358 90.4946 15.7722 90.313 15.9565C90.1336 16.1436 89.9065 16.2368 89.6313 16.2368C89.356 16.2368 89.1273 16.1436 88.9458 15.9565C88.7669 15.7695 88.6769 15.5331 88.6769 15.2474ZM89.0256 15.2474C89.0256 15.4474 89.0834 15.6087 89.1996 15.7325C89.3158 15.8563 89.4599 15.9185 89.6313 15.9185C89.8032 15.9185 89.9467 15.8563 90.0629 15.7325C90.1791 15.6087 90.237 15.4468 90.237 15.2474C90.237 15.0502 90.1791 14.89 90.0629 14.7662C89.944 14.6397 89.8005 14.5764 89.6313 14.5764C89.462 14.5764 89.318 14.6397 89.1996 14.7662C89.0839 14.89 89.0256 15.0507 89.0256 15.2474ZM91.2154 16.1768H90.8668V14.3192H91.1999V14.577H91.2149C91.2679 14.4858 91.3493 14.4103 91.4591 14.3497C91.5689 14.2891 91.6781 14.2586 91.7868 14.2586C91.9234 14.2586 92.0434 14.2902 92.1467 14.3535C92.2501 14.4167 92.3261 14.5041 92.3738 14.615C92.528 14.3776 92.7412 14.2586 93.0138 14.2586C93.2285 14.2586 93.394 14.3245 93.5102 14.4558C93.6264 14.5871 93.6843 14.7742 93.6843 15.017V16.1774H93.3356V15.0706C93.3356 14.8964 93.3041 14.7704 93.2409 14.6933C93.1777 14.6161 93.0716 14.5775 92.9227 14.5775C92.7889 14.5775 92.6764 14.6343 92.5853 14.7479C92.4943 14.8616 92.4488 14.9955 92.4488 15.1499V16.1774H92.1001V15.0706C92.1001 14.8964 92.0685 14.7704 92.0053 14.6933C91.9422 14.6161 91.8361 14.5775 91.6872 14.5775C91.5533 14.5775 91.4409 14.6343 91.3498 14.7479C91.2588 14.8616 91.2133 14.9955 91.2133 15.1499V16.1768H91.2154ZM95.0033 15.9185C95.1699 15.9185 95.3102 15.8552 95.4237 15.7287C95.5373 15.6049 95.5941 15.4441 95.5941 15.2474C95.5941 15.0529 95.5373 14.8921 95.4237 14.7662C95.3102 14.6397 95.1699 14.5764 95.0033 14.5764C94.8341 14.5764 94.6927 14.6397 94.5792 14.7662C94.4678 14.8926 94.4126 15.0529 94.4126 15.2474C94.4126 15.4447 94.4683 15.6065 94.5792 15.7325C94.6927 15.8568 94.8341 15.9185 95.0033 15.9185ZM95.0606 16.2374C94.9241 16.2374 94.7998 16.2084 94.6874 16.15C94.5749 16.0921 94.4887 16.015 94.4276 15.919H94.4126L94.4276 16.1768V16.9958H94.079V14.3192H94.4121V14.577H94.4271C94.4876 14.481 94.5744 14.4038 94.6868 14.346C94.7993 14.2881 94.9235 14.2586 95.0601 14.2586C95.3049 14.2586 95.5121 14.3545 95.6813 14.5469C95.8554 14.7415 95.9427 14.9752 95.9427 15.2485C95.9427 15.524 95.8554 15.7577 95.6813 15.9501C95.5126 16.1409 95.3054 16.2374 95.0606 16.2374ZM96.5152 15.6076C96.5152 15.6987 96.5538 15.7743 96.6309 15.8349C96.708 15.8954 96.798 15.926 96.9019 15.926C97.0486 15.926 97.1793 15.8719 97.2939 15.763C97.409 15.6542 97.4663 15.5267 97.4663 15.3804C97.3576 15.2946 97.2061 15.2517 97.0116 15.2517C96.8703 15.2517 96.7519 15.286 96.6576 15.3541C96.5623 15.4222 96.5152 15.5069 96.5152 15.6076ZM96.9661 14.2581C97.2237 14.2581 97.4272 14.3267 97.5761 14.4649C97.725 14.6027 97.7994 14.7919 97.7994 15.0315V16.1763H97.4663V15.9185H97.4513C97.3073 16.1307 97.1155 16.2368 96.8756 16.2368C96.671 16.2368 96.5002 16.1763 96.3626 16.0546C96.2249 15.9335 96.1558 15.7818 96.1558 15.5996C96.1558 15.4077 96.2287 15.2544 96.3738 15.1408C96.5189 15.0272 96.7128 14.9704 96.9554 14.9704C97.1627 14.9704 97.333 15.0084 97.4669 15.084V15.0041C97.4669 14.883 97.4187 14.7795 97.3228 14.6949C97.2269 14.6102 97.1145 14.5678 96.9854 14.5678C96.791 14.5678 96.6368 14.6498 96.5232 14.8144L96.2164 14.6209C96.3851 14.3797 96.6352 14.2581 96.9661 14.2581ZM98.1931 14.3186H98.5262V14.5764H98.5412C98.5942 14.4853 98.6756 14.4097 98.7854 14.3492C98.8952 14.2886 99.0092 14.2581 99.1281 14.2581C99.3552 14.2581 99.5303 14.3229 99.653 14.4531C99.7756 14.5834 99.8367 14.7683 99.8367 15.0084V16.1763H99.488V15.0315C99.4805 14.7281 99.3279 14.5764 99.0296 14.5764C98.8909 14.5764 98.7747 14.6327 98.681 14.7452C98.5878 14.8578 98.5406 14.9923 98.5406 15.1488V16.1763H98.192V14.3186H98.1931ZM101.868 14.3186L100.705 16.9952H100.345L100.777 16.0589L100.011 14.3186H100.39L100.943 15.6532H100.951L101.488 14.3186H101.868Z" fill="white"/>
<path d="M10.136 4.22672H10.7044V8.80005H10.136V8.23818C9.85289 8.66938 9.44129 8.88498 8.9012 8.88498C8.44387 8.88498 8.05404 8.71947 7.73173 8.38845C7.40942 8.05307 7.24827 7.64583 7.24827 7.16672C7.24827 6.6876 7.40942 6.28254 7.73173 5.95152C8.05404 5.61614 8.44387 5.44845 8.9012 5.44845C9.44129 5.44845 9.85289 5.66405 10.136 6.09525V4.22672ZM8.97307 8.33618C9.30409 8.33618 9.58067 8.22512 9.8028 8.00298C10.0249 7.77649 10.136 7.49774 10.136 7.16672C10.136 6.83569 10.0249 6.55912 9.8028 6.33698C9.58067 6.11049 9.30409 5.99725 8.97307 5.99725C8.6464 5.99725 8.372 6.11049 8.14987 6.33698C7.92773 6.55912 7.81667 6.83569 7.81667 7.16672C7.81667 7.49774 7.92773 7.77649 8.14987 8.00298C8.372 8.22512 8.6464 8.33618 8.97307 8.33618ZM11.9641 7.42805C12.0207 7.71987 12.1536 7.94636 12.3626 8.10752C12.5761 8.26867 12.8374 8.34925 13.1466 8.34925C13.5778 8.34925 13.8914 8.19027 14.0874 7.87232L14.5709 8.14672C14.253 8.63889 13.7738 8.88498 13.1336 8.88498C12.6153 8.88498 12.1928 8.72383 11.8661 8.40152C11.5438 8.07485 11.3826 7.66325 11.3826 7.16672C11.3826 6.67454 11.5416 6.26512 11.8596 5.93845C12.1775 5.61178 12.5891 5.44845 13.0944 5.44845C13.5735 5.44845 13.9633 5.61832 14.2638 5.95805C14.5687 6.29343 14.7212 6.69849 14.7212 7.17325C14.7212 7.256 14.7146 7.34094 14.7016 7.42805H11.9641ZM13.0944 5.98418C12.7895 5.98418 12.5369 6.07129 12.3365 6.24552C12.1362 6.41538 12.012 6.64405 11.9641 6.93152H14.1462C14.0983 6.62227 13.9764 6.38707 13.7804 6.22592C13.5844 6.06476 13.3557 5.98418 13.0944 5.98418ZM15.737 6.41538C15.737 6.54169 15.8001 6.64405 15.9264 6.72245C16.0527 6.79649 16.2052 6.85747 16.3838 6.90538C16.5623 6.94894 16.7409 7.0012 16.9195 7.06218C17.0981 7.1188 17.2505 7.21898 17.3768 7.36272C17.5031 7.50209 17.5663 7.68285 17.5663 7.90498C17.5663 8.20116 17.4509 8.43854 17.22 8.61712C16.9935 8.79569 16.7017 8.88498 16.3446 8.88498C16.0266 8.88498 15.7544 8.81529 15.5279 8.67592C15.3014 8.53654 15.1402 8.35143 15.0444 8.12058L15.5344 7.83965C15.5867 7.99645 15.6847 8.12058 15.8284 8.21205C15.9722 8.30352 16.1442 8.34925 16.3446 8.34925C16.5318 8.34925 16.6865 8.3144 16.8084 8.24472C16.9304 8.17067 16.9914 8.05743 16.9914 7.90498C16.9914 7.77867 16.9282 7.67849 16.8019 7.60445C16.6756 7.52605 16.5231 7.46507 16.3446 7.42152C16.166 7.3736 15.9874 7.31916 15.8088 7.25818C15.6302 7.1972 15.4778 7.09703 15.3515 6.95765C15.2252 6.81827 15.162 6.63969 15.162 6.42192C15.162 6.1388 15.2709 5.90578 15.4887 5.72285C15.7108 5.53992 15.9874 5.44845 16.3184 5.44845C16.5841 5.44845 16.8193 5.50943 17.024 5.63138C17.2331 5.74898 17.3899 5.91449 17.4944 6.12792L17.0175 6.39578C16.8999 6.11703 16.6669 5.97765 16.3184 5.97765C16.1573 5.97765 16.0201 6.01685 15.9068 6.09525C15.7936 6.16929 15.737 6.276 15.737 6.41538ZM18.4948 4.93885C18.3859 4.93885 18.2945 4.90183 18.2204 4.82778C18.1464 4.75374 18.1094 4.66445 18.1094 4.55992C18.1094 4.45538 18.1464 4.36609 18.2204 4.29205C18.2945 4.21365 18.3859 4.17445 18.4948 4.17445C18.5994 4.17445 18.6887 4.21365 18.7627 4.29205C18.8367 4.36609 18.8738 4.45538 18.8738 4.55992C18.8738 4.66445 18.8367 4.75374 18.7627 4.82778C18.6887 4.90183 18.5994 4.93885 18.4948 4.93885ZM18.2074 8.80005V5.53338H18.7758V8.80005H18.2074ZM22.3543 5.53338H22.9161V8.66285C22.9161 9.14632 22.7528 9.52089 22.4261 9.78658C22.0995 10.0566 21.7075 10.1916 21.2501 10.1916C20.8843 10.1916 20.5685 10.122 20.3028 9.98258C20.0371 9.84756 19.8367 9.65156 19.7017 9.39458L20.1983 9.11365C20.3768 9.47952 20.7318 9.66245 21.2632 9.66245C21.6029 9.66245 21.8686 9.57316 22.0603 9.39458C22.2563 9.216 22.3543 8.97209 22.3543 8.66285V8.19898C22.0668 8.63454 21.6574 8.85232 21.126 8.85232C20.6599 8.85232 20.2658 8.6868 19.9435 8.35578C19.6211 8.02476 19.46 7.62187 19.46 7.14712C19.46 6.67236 19.6211 6.27165 19.9435 5.94498C20.2658 5.61396 20.6599 5.44845 21.126 5.44845C21.6617 5.44845 22.0711 5.66405 22.3543 6.09525V5.53338ZM20.3616 7.97685C20.5837 8.19898 20.8603 8.31005 21.1913 8.31005C21.5223 8.31005 21.7989 8.19898 22.0211 7.97685C22.2432 7.75472 22.3543 7.47814 22.3543 7.14712C22.3543 6.82045 22.2432 6.54605 22.0211 6.32392C21.7989 6.10178 21.5223 5.99072 21.1913 5.99072C20.8603 5.99072 20.5837 6.10178 20.3616 6.32392C20.1395 6.54605 20.0284 6.82045 20.0284 7.14712C20.0284 7.47814 20.1395 7.75472 20.3616 7.97685ZM25.4041 5.44845C25.7874 5.44845 26.0944 5.5704 26.3253 5.81432C26.5561 6.05387 26.6716 6.38054 26.6716 6.79432V8.80005H26.1032V6.82698C26.1032 6.56129 26.0313 6.35658 25.8876 6.21285C25.7438 6.06476 25.5456 5.99072 25.293 5.99072C25.0099 5.99072 24.7812 6.08 24.607 6.25858C24.4328 6.4328 24.3457 6.70285 24.3457 7.06872V8.80005H23.7773V5.53338H24.3457V6.00378C24.5765 5.63356 24.9293 5.44845 25.4041 5.44845ZM27.8636 7.42805C27.9202 7.71987 28.0531 7.94636 28.2621 8.10752C28.4755 8.26867 28.7369 8.34925 29.0461 8.34925C29.4773 8.34925 29.7909 8.19027 29.9869 7.87232L30.4704 8.14672C30.1524 8.63889 29.6733 8.88498 29.0331 8.88498C28.5147 8.88498 28.0923 8.72383 27.7656 8.40152C27.4433 8.07485 27.2821 7.66325 27.2821 7.16672C27.2821 6.67454 27.4411 6.26512 27.7591 5.93845C28.077 5.61178 28.4886 5.44845 28.9939 5.44845C29.473 5.44845 29.8628 5.61832 30.1633 5.95805C30.4682 6.29343 30.6207 6.69849 30.6207 7.17325C30.6207 7.256 30.6141 7.34094 30.6011 7.42805H27.8636ZM28.9939 5.98418C28.689 5.98418 28.4363 6.07129 28.236 6.24552C28.0356 6.41538 27.9115 6.64405 27.8636 6.93152H30.0457C29.9978 6.62227 29.8759 6.38707 29.6799 6.22592C29.4839 6.06476 29.2552 5.98418 28.9939 5.98418ZM33.9725 4.22672H34.5409V8.80005H33.9725V8.23818C33.6893 8.66938 33.2777 8.88498 32.7377 8.88498C32.2803 8.88498 31.8905 8.71947 31.5682 8.38845C31.2459 8.05307 31.0847 7.64583 31.0847 7.16672C31.0847 6.6876 31.2459 6.28254 31.5682 5.95152C31.8905 5.61614 32.2803 5.44845 32.7377 5.44845C33.2777 5.44845 33.6893 5.66405 33.9725 6.09525V4.22672ZM32.8095 8.33618C33.1405 8.33618 33.4171 8.22512 33.6393 8.00298C33.8614 7.77649 33.9725 7.49774 33.9725 7.16672C33.9725 6.83569 33.8614 6.55912 33.6393 6.33698C33.4171 6.11049 33.1405 5.99725 32.8095 5.99725C32.4829 5.99725 32.2085 6.11049 31.9863 6.33698C31.7642 6.55912 31.6531 6.83569 31.6531 7.16672C31.6531 7.49774 31.7642 7.77649 31.9863 8.00298C32.2085 8.22512 32.4829 8.33618 32.8095 8.33618ZM39.7402 5.53338H40.3086V8.80005H39.7402V8.23818C39.4571 8.66938 39.0455 8.88498 38.5054 8.88498C38.048 8.88498 37.6582 8.71947 37.3359 8.38845C37.0136 8.05307 36.8524 7.64583 36.8524 7.16672C36.8524 6.6876 37.0136 6.28254 37.3359 5.95152C37.6582 5.61614 38.048 5.44845 38.5054 5.44845C39.0455 5.44845 39.4571 5.66405 39.7402 6.09525V5.53338ZM38.5772 8.33618C38.9083 8.33618 39.1848 8.22512 39.407 8.00298C39.6291 7.77649 39.7402 7.49774 39.7402 7.16672C39.7402 6.83569 39.6291 6.55912 39.407 6.33698C39.1848 6.11049 38.9083 5.99725 38.5772 5.99725C38.2506 5.99725 37.9762 6.11049 37.754 6.33698C37.5319 6.55912 37.4208 6.83569 37.4208 7.16672C37.4208 7.49774 37.5319 7.77649 37.754 8.00298C37.9762 8.22512 38.2506 8.33618 38.5772 8.33618ZM42.7965 5.44845C43.1798 5.44845 43.4869 5.5704 43.7177 5.81432C43.9486 6.05387 44.064 6.38054 44.064 6.79432V8.80005H43.4956V6.82698C43.4956 6.56129 43.4237 6.35658 43.28 6.21285C43.1363 6.06476 42.9381 5.99072 42.6855 5.99072C42.4024 5.99072 42.1737 6.08 41.9995 6.25858C41.8253 6.4328 41.7381 6.70285 41.7381 7.06872V8.80005H41.1697V5.53338H41.7381V6.00378C41.969 5.63356 42.3218 5.44845 42.7965 5.44845ZM47.5623 4.22672H48.1307V8.80005H47.5623V8.23818C47.2792 8.66938 46.8676 8.88498 46.3275 8.88498C45.8702 8.88498 45.4803 8.71947 45.158 8.38845C44.8357 8.05307 44.6746 7.64583 44.6746 7.16672C44.6746 6.6876 44.8357 6.28254 45.158 5.95152C45.4803 5.61614 45.8702 5.44845 46.3275 5.44845C46.8676 5.44845 47.2792 5.66405 47.5623 6.09525V4.22672ZM46.3994 8.33618C46.7304 8.33618 47.007 8.22512 47.2291 8.00298C47.4512 7.77649 47.5623 7.49774 47.5623 7.16672C47.5623 6.83569 47.4512 6.55912 47.2291 6.33698C47.007 6.11049 46.7304 5.99725 46.3994 5.99725C46.0727 5.99725 45.7983 6.11049 45.5762 6.33698C45.354 6.55912 45.243 6.83569 45.243 7.16672C45.243 7.49774 45.354 7.77649 45.5762 8.00298C45.7983 8.22512 46.0727 8.33618 46.3994 8.33618ZM10.136 12.2267H10.7044V16.8H10.136V16.2382C9.85289 16.6694 9.44129 16.885 8.9012 16.885C8.44387 16.885 8.05404 16.7195 7.73173 16.3884C7.40942 16.0531 7.24827 15.6458 7.24827 15.1667C7.24827 14.6876 7.40942 14.2825 7.73173 13.9515C8.05404 13.6161 8.44387 13.4484 8.9012 13.4484C9.44129 13.4484 9.85289 13.664 10.136 14.0952V12.2267ZM8.97307 16.3362C9.30409 16.3362 9.58067 16.2251 9.8028 16.003C10.0249 15.7765 10.136 15.4977 10.136 15.1667C10.136 14.8357 10.0249 14.5591 9.8028 14.337C9.58067 14.1105 9.30409 13.9972 8.97307 13.9972C8.6464 13.9972 8.372 14.1105 8.14987 14.337C7.92773 14.5591 7.81667 14.8357 7.81667 15.1667C7.81667 15.4977 7.92773 15.7765 8.14987 16.003C8.372 16.2251 8.6464 16.3362 8.97307 16.3362ZM11.9641 15.428C12.0207 15.7199 12.1536 15.9464 12.3626 16.1075C12.5761 16.2687 12.8374 16.3492 13.1466 16.3492C13.5778 16.3492 13.8914 16.1903 14.0874 15.8723L14.5709 16.1467C14.253 16.6389 13.7738 16.885 13.1336 16.885C12.6153 16.885 12.1928 16.7238 11.8661 16.4015C11.5438 16.0748 11.3826 15.6632 11.3826 15.1667C11.3826 14.6745 11.5416 14.2651 11.8596 13.9384C12.1775 13.6118 12.5891 13.4484 13.0944 13.4484C13.5735 13.4484 13.9633 13.6183 14.2638 13.958C14.5687 14.2934 14.7212 14.6985 14.7212 15.1732C14.7212 15.256 14.7146 15.3409 14.7016 15.428H11.9641ZM13.0944 13.9842C12.7895 13.9842 12.5369 14.0713 12.3365 14.2455C12.1362 14.4154 12.012 14.644 11.9641 14.9315H14.1462C14.0983 14.6223 13.9764 14.3871 13.7804 14.2259C13.5844 14.0648 13.3557 13.9842 13.0944 13.9842ZM17.5336 13.5334H18.1478L16.8411 16.8H16.1747L14.868 13.5334H15.4822L16.5079 16.1924L17.5336 13.5334ZM18.8994 15.428C18.956 15.7199 19.0889 15.9464 19.2979 16.1075C19.5114 16.2687 19.7727 16.3492 20.0819 16.3492C20.5131 16.3492 20.8267 16.1903 21.0227 15.8723L21.5062 16.1467C21.1882 16.6389 20.7091 16.885 20.0689 16.885C19.5506 16.885 19.1281 16.7238 18.8014 16.4015C18.4791 16.0748 18.3179 15.6632 18.3179 15.1667C18.3179 14.6745 18.4769 14.2651 18.7949 13.9384C19.1128 13.6118 19.5244 13.4484 20.0297 13.4484C20.5088 13.4484 20.8986 13.6183 21.1991 13.958C21.504 14.2934 21.6565 14.6985 21.6565 15.1732C21.6565 15.256 21.6499 15.3409 21.6369 15.428H18.8994ZM20.0297 13.9842C19.7248 13.9842 19.4722 14.0713 19.2718 14.2455C19.0714 14.4154 18.9473 14.644 18.8994 14.9315H21.0815C21.0336 14.6223 20.9117 14.3871 20.7157 14.2259C20.5197 14.0648 20.291 13.9842 20.0297 13.9842ZM22.3098 16.8V12.0307H22.8782V16.8H22.3098ZM26.5025 16.3884C26.1671 16.7195 25.7598 16.885 25.2807 16.885C24.8016 16.885 24.3944 16.7195 24.059 16.3884C23.728 16.0574 23.5625 15.6502 23.5625 15.1667C23.5625 14.6832 23.728 14.276 24.059 13.945C24.3944 13.614 24.8016 13.4484 25.2807 13.4484C25.7598 13.4484 26.1671 13.614 26.5025 13.945C26.8378 14.276 27.0055 14.6832 27.0055 15.1667C27.0055 15.6502 26.8378 16.0574 26.5025 16.3884ZM25.2807 16.3296C25.6074 16.3296 25.8818 16.2186 26.1039 15.9964C26.3261 15.7743 26.4371 15.4977 26.4371 15.1667C26.4371 14.8357 26.3261 14.5591 26.1039 14.337C25.8818 14.1148 25.6074 14.0038 25.2807 14.0038C24.9584 14.0038 24.6862 14.1148 24.4641 14.337C24.2419 14.5591 24.1309 14.8357 24.1309 15.1667C24.1309 15.4977 24.2419 15.7743 24.4641 15.9964C24.6862 16.2186 24.9584 16.3296 25.2807 16.3296ZM29.4788 13.4484C29.9361 13.4484 30.326 13.6161 30.6483 13.9515C30.9706 14.2825 31.1317 14.6876 31.1317 15.1667C31.1317 15.6458 30.9706 16.0531 30.6483 16.3884C30.326 16.7195 29.9361 16.885 29.4788 16.885C28.9387 16.885 28.5271 16.6694 28.244 16.2382V18.1067H27.6756V13.5334H28.244V14.0952C28.5271 13.664 28.9387 13.4484 29.4788 13.4484ZM29.4069 16.3362C29.7336 16.3362 30.008 16.2251 30.2301 16.003C30.4523 15.7765 30.5633 15.4977 30.5633 15.1667C30.5633 14.8357 30.4523 14.5591 30.2301 14.337C30.008 14.1105 29.7336 13.9972 29.4069 13.9972C29.0759 13.9972 28.7993 14.1105 28.5772 14.337C28.3551 14.5591 28.244 14.8357 28.244 15.1667C28.244 15.4977 28.3551 15.7765 28.5772 16.003C28.7993 16.2251 29.0759 16.3362 29.4069 16.3362ZM32.2085 15.428C32.2651 15.7199 32.398 15.9464 32.607 16.1075C32.8205 16.2687 33.0818 16.3492 33.391 16.3492C33.8222 16.3492 34.1358 16.1903 34.3318 15.8723L34.8153 16.1467C34.4974 16.6389 34.0182 16.885 33.378 16.885C32.8597 16.885 32.4372 16.7238 32.1105 16.4015C31.7882 16.0748 31.627 15.6632 31.627 15.1667C31.627 14.6745 31.786 14.2651 32.104 13.9384C32.4219 13.6118 32.8335 13.4484 33.3388 13.4484C33.8179 13.4484 34.2077 13.6183 34.5082 13.958C34.8131 14.2934 34.9656 14.6985 34.9656 15.1732C34.9656 15.256 34.959 15.3409 34.946 15.428H32.2085ZM33.3388 13.9842C33.0339 13.9842 32.7813 14.0713 32.5809 14.2455C32.3806 14.4154 32.2564 14.644 32.2085 14.9315H34.3906C34.3427 14.6223 34.2208 14.3871 34.0248 14.2259C33.8288 14.0648 33.6001 13.9842 33.3388 13.9842ZM38.3174 12.2267H38.8858V16.8H38.3174V16.2382C38.0343 16.6694 37.6227 16.885 37.0826 16.885C36.6252 16.885 36.2354 16.7195 35.9131 16.3884C35.5908 16.0531 35.4296 15.6458 35.4296 15.1667C35.4296 14.6876 35.5908 14.2825 35.9131 13.9515C36.2354 13.6161 36.6252 13.4484 37.0826 13.4484C37.6227 13.4484 38.0343 13.664 38.3174 14.0952V12.2267ZM37.1544 16.3362C37.4855 16.3362 37.762 16.2251 37.9842 16.003C38.2063 15.7765 38.3174 15.4977 38.3174 15.1667C38.3174 14.8357 38.2063 14.5591 37.9842 14.337C37.762 14.1105 37.4855 13.9972 37.1544 13.9972C36.8278 13.9972 36.5534 14.1105 36.3312 14.337C36.1091 14.5591 35.998 14.8357 35.998 15.1667C35.998 15.4977 36.1091 15.7765 36.3312 16.003C36.5534 16.2251 36.8278 16.3362 37.1544 16.3362ZM41.6678 12.9388C41.5589 12.9388 41.4674 12.9018 41.3934 12.8278C41.3193 12.7537 41.2823 12.6644 41.2823 12.5599C41.2823 12.4554 41.3193 12.3661 41.3934 12.292C41.4674 12.2136 41.5589 12.1744 41.6678 12.1744C41.7723 12.1744 41.8616 12.2136 41.9356 12.292C42.0097 12.3661 42.0467 12.4554 42.0467 12.5599C42.0467 12.6644 42.0097 12.7537 41.9356 12.8278C41.8616 12.9018 41.7723 12.9388 41.6678 12.9388ZM41.3803 16.8V13.5334H41.9487V16.8H41.3803ZM44.4426 13.4484C44.8259 13.4484 45.133 13.5704 45.3638 13.8143C45.5947 14.0539 45.7101 14.3805 45.7101 14.7943V16.8H45.1417V14.827C45.1417 14.5613 45.0698 14.3566 44.9261 14.2128C44.7824 14.0648 44.5842 13.9907 44.3316 13.9907C44.0485 13.9907 43.8198 14.08 43.6456 14.2586C43.4713 14.4328 43.3842 14.7028 43.3842 15.0687V16.8H42.8158V13.5334H43.3842V14.0038C43.6151 13.6336 43.9679 13.4484 44.4426 13.4484Z" fill="#00094A"/>
</svg>
