<svg width="18" height="20" viewBox="0 0 18 20" fill="none" xmlns="http://www.w3.org/2000/svg">
<path d="M14.9469 13.1761C14.4793 13.1762 14.0179 13.2838 13.5985 13.4907C13.1791 13.6976 12.8129 13.9982 12.5283 14.3692L5.94318 10.6318C6.16444 9.98981 6.16444 9.29222 5.94318 8.65021L12.5283 4.91279C12.9879 5.50915 13.6519 5.91445 14.3924 6.0507C15.1329 6.18694 15.8976 6.04452 16.5395 5.65082C17.1813 5.25712 17.6548 4.63997 17.869 3.91812C18.0831 3.19626 18.0227 2.42072 17.6994 1.74072C17.3761 1.06071 16.8128 0.524295 16.1177 0.234685C15.4227 -0.0549258 14.6452 -0.0772665 13.9347 0.171962C13.2242 0.42119 12.6309 0.924377 12.2691 1.5847C11.9073 2.24502 11.8025 3.01582 11.9749 3.74877L5.27757 7.54991C4.85848 7.10408 4.31511 6.79447 3.71792 6.66122C3.12073 6.52798 2.49727 6.57725 1.92842 6.80264C1.35957 7.02803 0.871573 7.41915 0.527713 7.92526C0.183853 8.43138 0 9.02914 0 9.64101C0 10.2529 0.183853 10.8506 0.527713 11.3568C0.871573 11.8629 1.35957 12.254 1.92842 12.4794C2.49727 12.7048 3.12073 12.754 3.71792 12.6208C4.31511 12.4876 4.85848 12.1779 5.27757 11.7321L11.9749 15.5333C11.8305 16.1503 11.8817 16.797 12.1214 17.3836C12.3612 17.9702 12.7775 18.4677 13.3127 18.807C13.8479 19.1463 14.4754 19.3107 15.1082 19.2773C15.741 19.2439 16.3478 19.0144 16.8442 18.6206C17.3407 18.2268 17.7024 17.6883 17.879 17.0797C18.0556 16.4711 18.0385 15.8227 17.83 15.2243C17.6214 14.6259 17.2318 14.1072 16.7152 13.7402C16.1986 13.3732 15.5806 13.1761 14.9469 13.1761ZM14.9469 1.28527C15.2965 1.28527 15.6383 1.38894 15.9289 1.58316C16.2196 1.77738 16.4462 2.05344 16.5799 2.37642C16.7137 2.6994 16.7487 3.05479 16.6805 3.39767C16.6123 3.74054 16.444 4.05549 16.1968 4.30269C15.9496 4.54988 15.6346 4.71823 15.2918 4.78643C14.9489 4.85463 14.5935 4.81963 14.2705 4.68585C13.9475 4.55206 13.6715 4.32551 13.4773 4.03484C13.283 3.74416 13.1794 3.40242 13.1794 3.05283C13.1799 2.58421 13.3663 2.13492 13.6977 1.80355C14.029 1.47219 14.4783 1.28579 14.9469 1.28527ZM3.05607 11.4086C2.70648 11.4086 2.36474 11.3049 2.07406 11.1107C1.78339 10.9165 1.55684 10.6404 1.42306 10.3174C1.28927 9.99445 1.25427 9.63905 1.32247 9.29618C1.39067 8.95331 1.55902 8.63836 1.80621 8.39116C2.05341 8.14396 2.36836 7.97562 2.71123 7.90741C3.05411 7.83921 3.40951 7.87422 3.73248 8.008C4.05546 8.14178 4.33152 8.36833 4.52574 8.65901C4.71996 8.94968 4.82363 9.29142 4.82363 9.64101C4.82311 10.1096 4.63672 10.5589 4.30535 10.8903C3.97398 11.2217 3.52469 11.4081 3.05607 11.4086ZM14.9469 17.9968C14.5973 17.9968 14.2556 17.8931 13.9649 17.6989C13.6743 17.5046 13.4477 17.2286 13.3139 16.9056C13.1801 16.5826 13.1451 16.2272 13.2133 15.8844C13.2815 15.5415 13.4499 15.2265 13.6971 14.9793C13.9443 14.7321 14.2592 14.5638 14.6021 14.4956C14.945 14.4274 15.3004 14.4624 15.6233 14.5962C15.9463 14.73 16.2224 14.9565 16.4166 15.2472C16.6108 15.5379 16.7145 15.8796 16.7145 16.2292C16.714 16.6978 16.5276 17.1471 16.1962 17.4785C15.8648 17.8098 15.4156 17.9962 14.9469 17.9968Z" fill="black"/>
</svg>
