<svg width="15" height="21" viewBox="0 0 15 21" fill="none" xmlns="http://www.w3.org/2000/svg">
<path d="M0 2.78645C0 2.1234 0.263396 1.4875 0.732245 1.01865C1.20109 0.549804 1.83699 0.286407 2.50004 0.286407L12.5002 0.286407C13.1633 0.286407 13.7991 0.549804 14.268 1.01865C14.7368 1.4875 15.0002 2.1234 15.0002 2.78645V19.6617C15.0002 19.7748 14.9695 19.8857 14.9113 19.9827C14.8532 20.0796 14.7699 20.159 14.6702 20.2124C14.5706 20.2658 14.4583 20.2911 14.3454 20.2857C14.2324 20.2803 14.1231 20.2444 14.029 20.1817L7.50012 16.6629L0.971266 20.1817C0.877146 20.2444 0.7678 20.2803 0.654875 20.2857C0.541949 20.2911 0.429673 20.2658 0.330005 20.2124C0.230336 20.159 0.147007 20.0796 0.088894 19.9827C0.0307805 19.8857 5.84015e-05 19.7748 0 19.6617V2.78645ZM2.50004 1.53643C2.16851 1.53643 1.85057 1.66813 1.61614 1.90255C1.38172 2.13697 1.25002 2.45492 1.25002 2.78645V18.4942L7.15387 15.3917C7.25644 15.3234 7.37691 15.287 7.50012 15.287C7.62333 15.287 7.7438 15.3234 7.84638 15.3917L13.7502 18.4942V2.78645C13.7502 2.45492 13.6185 2.13697 13.3841 1.90255C13.1497 1.66813 12.8317 1.53643 12.5002 1.53643H2.50004Z" fill="black"/>
</svg>
